FFprobe version SVN-rUNKNOWN, Copyright (c) 2007-2008 Stefano Sabatini
  libavutil version: 49.15.0
  libavcodec version: 52.20.1
  libavformat version: 52.31.0
  built on May 22 2010 15:12:14, gcc: 4.2.1 (Apple Inc. build 5646) (dot 1)
Input #0, ogg, from '/Users/philip/Projects/ffprobe/test/testcases/source.ogv':
  Duration: 00:00:05.66, start: 0.000000, bitrate: 241 kb/s
    Stream #0.0: Video: theora, yuv420p, 320x240, PAR 1:1 DAR 4:3, 49.58 tbr, 49.58 tbn, 49.58 tbc
    Stream #0.1: Audio: vorbis, 22050 Hz, stereo, s16
[PACKET]
codec_type=audio
stream_index=1
pts=0
pts_time=0.000000 
dts=0
dts_time=0.000000 
size=30.000000 
file_pkt_nb=1
stream_pkt_nb=1
duration_ts=0
duration_time=0.000000 
flag_key=K
[/PACKET]
[PACKET]
codec_type=video
stream_index=0
pts=0
pts_time=0.000000 
dts=0
dts_time=0.000000 
size=993.000000 
file_pkt_nb=2
stream_pkt_nb=1
duration_ts=1
duration_time=0.020168 
flag_key=K
[/PACKET]
[PACKET]
codec_type=video
stream_index=0
pts=1
pts_time=0.020168 
dts=1
dts_time=0.020168 
size=20.000000 
file_pkt_nb=3
stream_pkt_nb=2
duration_ts=1
duration_time=0.020168 
flag_key=K
[/PACKET]
[PACKET]
codec_type=audio
stream_index=1
pts=0
pts_time=0.000000 
dts=0
dts_time=0.000000 
size=30.000000 
file_pkt_nb=4
stream_pkt_nb=2
duration_ts=0
duration_time=0.000000 
flag_key=K
[/PACKET]
[PACKET]
codec_type=video
stream_index=0
pts=2
pts_time=0.040336 
dts=2
dts_time=0.040336 
size=55.000000 
file_pkt_nb=5
stream_pkt_nb=3
duration_ts=1
duration_time=0.020168 
flag_key=K
[/PACKET]
[PACKET]
codec_type=video
stream_index=0
pts=3
pts_time=0.060504 
dts=3
dts_time=0.060504 
size=820.000000 
file_pkt_nb=6
stream_pkt_nb=4
duration_ts=1
duration_time=0.020168 
flag_key=K
[/PACKET]
[PACKET]
codec_type=audio
stream_index=1
pts=1024
pts_time=0.046440 
dts=1024
dts_time=0.046440 
size=30.000000 
file_pkt_nb=7
stream_pkt_nb=3
duration_ts=0
duration_time=0.000000 
flag_key=K
[/PACKET]
[PACKET]
codec_type=video
stream_index=0
pts=4
pts_time=0.080672 
dts=4
dts_time=0.080672 
size=272.000000 
file_pkt_nb=8
stream_pkt_nb=5
duration_ts=1
duration_time=0.020168 
flag_key=K
[/PACKET]
[PACKET]
codec_type=video
stream_index=0
pts=5
pts_time=0.100840 
dts=5
dts_time=0.100840 
size=530.000000 
file_pkt_nb=9
stream_pkt_nb=6
duration_ts=1
duration_time=0.020168 
flag_key=K
[/PACKET]
[PACKET]
codec_type=audio
stream_index=1
pts=2048
pts_time=0.092880 
dts=2048
dts_time=0.092880 
size=106.000000 
file_pkt_nb=10
stream_pkt_nb=4
duration_ts=0
duration_time=0.000000 
flag_key=K
[/PACKET]
[PACKET]
codec_type=video
stream_index=0
pts=6
pts_time=0.121008 
dts=6
dts_time=0.121008 
size=707.000000 
file_pkt_nb=11
stream_pkt_nb=7
duration_ts=1
duration_time=0.020168 
flag_key=K
[/PACKET]
[PACKET]
codec_type=video
stream_index=0
pts=7
pts_time=0.141176 
dts=7
dts_time=0.141176 
size=1073.000000 
file_pkt_nb=12
stream_pkt_nb=8
duration_ts=1
duration_time=0.020168 
flag_key=K
[/PACKET]
[PACKET]
codec_type=video
stream_index=0
pts=8
pts_time=0.161345 
dts=8
dts_time=0.161345 
size=27.000000 
file_pkt_nb=13
stream_pkt_nb=9
duration_ts=1
duration_time=0.020168 
flag_key=K
[/PACKET]
[PACKET]
codec_type=audio
stream_index=1
pts=3072
pts_time=0.139320 
dts=3072
dts_time=0.139320 
size=108.000000 
file_pkt_nb=14
stream_pkt_nb=5
duration_ts=0
duration_time=0.000000 
flag_key=K
[/PACKET]
[PACKET]
codec_type=video
stream_index=0
pts=9
pts_time=0.181513 
dts=9
dts_time=0.181513 
size=589.000000 
file_pkt_nb=15
stream_pkt_nb=10
duration_ts=1
duration_time=0.020168 
flag_key=K
[/PACKET]
[PACKET]
codec_type=video
stream_index=0
pts=10
pts_time=0.201681 
dts=10
dts_time=0.201681 
size=177.000000 
file_pkt_nb=16
stream_pkt_nb=11
duration_ts=1
duration_time=0.020168 
flag_key=K
[/PACKET]
[PACKET]
codec_type=audio
stream_index=1
pts=4096
pts_time=0.185760 
dts=4096
dts_time=0.185760 
size=106.000000 
file_pkt_nb=17
stream_pkt_nb=6
duration_ts=0
duration_time=0.000000 
flag_key=K
[/PACKET]
[PACKET]
codec_type=video
stream_index=0
pts=11
pts_time=0.221849 
dts=11
dts_time=0.221849 
size=4514.000000 
file_pkt_nb=18
stream_pkt_nb=12
duration_ts=1
duration_time=0.020168 
flag_key=K
[/PACKET]
[PACKET]
codec_type=video
stream_index=0
pts=12
pts_time=0.242017 
dts=12
dts_time=0.242017 
size=1017.000000 
file_pkt_nb=19
stream_pkt_nb=13
duration_ts=1
duration_time=0.020168 
flag_key=K
[/PACKET]
[PACKET]
codec_type=audio
stream_index=1
pts=5120
pts_time=0.232200 
dts=5120
dts_time=0.232200 
size=118.000000 
file_pkt_nb=20
stream_pkt_nb=7
duration_ts=0
duration_time=0.000000 
flag_key=K
[/PACKET]
[PACKET]
codec_type=video
stream_index=0
pts=13
pts_time=0.262185 
dts=13
dts_time=0.262185 
size=22.000000 
file_pkt_nb=21
stream_pkt_nb=14
duration_ts=1
duration_time=0.020168 
flag_key=K
[/PACKET]
[PACKET]
codec_type=video
stream_index=0
pts=14
pts_time=0.282353 
dts=14
dts_time=0.282353 
size=211.000000 
file_pkt_nb=22
stream_pkt_nb=15
duration_ts=1
duration_time=0.020168 
flag_key=K
[/PACKET]
[PACKET]
codec_type=video
stream_index=0
pts=15
pts_time=0.302521 
dts=15
dts_time=0.302521 
size=172.000000 
file_pkt_nb=23
stream_pkt_nb=16
duration_ts=1
duration_time=0.020168 
flag_key=K
[/PACKET]
[PACKET]
codec_type=audio
stream_index=1
pts=6144
pts_time=0.278639 
dts=6144
dts_time=0.278639 
size=102.000000 
file_pkt_nb=24
stream_pkt_nb=8
duration_ts=0
duration_time=0.000000 
flag_key=K
[/PACKET]
[PACKET]
codec_type=video
stream_index=0
pts=16
pts_time=0.322689 
dts=16
dts_time=0.322689 
size=877.000000 
file_pkt_nb=25
stream_pkt_nb=17
duration_ts=1
duration_time=0.020168 
flag_key=K
[/PACKET]
[PACKET]
codec_type=video
stream_index=0
pts=17
pts_time=0.342857 
dts=17
dts_time=0.342857 
size=19.000000 
file_pkt_nb=26
stream_pkt_nb=18
duration_ts=1
duration_time=0.020168 
flag_key=K
[/PACKET]
[PACKET]
codec_type=audio
stream_index=1
pts=7168
pts_time=0.325079 
dts=7168
dts_time=0.325079 
size=108.000000 
file_pkt_nb=27
stream_pkt_nb=9
duration_ts=0
duration_time=0.000000 
flag_key=K
[/PACKET]
[PACKET]
codec_type=video
stream_index=0
pts=18
pts_time=0.363025 
dts=18
dts_time=0.363025 
size=665.000000 
file_pkt_nb=28
stream_pkt_nb=19
duration_ts=1
duration_time=0.020168 
flag_key=K
[/PACKET]
[PACKET]
codec_type=video
stream_index=0
pts=19
pts_time=0.383193 
dts=19
dts_time=0.383193 
size=117.000000 
file_pkt_nb=29
stream_pkt_nb=20
duration_ts=1
duration_time=0.020168 
flag_key=K
[/PACKET]
[PACKET]
codec_type=audio
stream_index=1
pts=8192
pts_time=0.371519 
dts=8192
dts_time=0.371519 
size=115.000000 
file_pkt_nb=30
stream_pkt_nb=10
duration_ts=0
duration_time=0.000000 
flag_key=K
[/PACKET]
[PACKET]
codec_type=video
stream_index=0
pts=20
pts_time=0.403361 
dts=20
dts_time=0.403361 
size=272.000000 
file_pkt_nb=31
stream_pkt_nb=21
duration_ts=1
duration_time=0.020168 
flag_key=K
[/PACKET]
[PACKET]
codec_type=video
stream_index=0
pts=21
pts_time=0.423529 
dts=21
dts_time=0.423529 
size=15.000000 
file_pkt_nb=32
stream_pkt_nb=22
duration_ts=1
duration_time=0.020168 
flag_key=K
[/PACKET]
[PACKET]
codec_type=video
stream_index=0
pts=22
pts_time=0.443697 
dts=22
dts_time=0.443697 
size=3358.000000 
file_pkt_nb=33
stream_pkt_nb=23
duration_ts=1
duration_time=0.020168 
flag_key=K
[/PACKET]
[PACKET]
codec_type=audio
stream_index=1
pts=9216
pts_time=0.417959 
dts=9216
dts_time=0.417959 
size=132.000000 
file_pkt_nb=34
stream_pkt_nb=11
duration_ts=0
duration_time=0.000000 
flag_key=K
[/PACKET]
[PACKET]
codec_type=video
stream_index=0
pts=23
pts_time=0.463866 
dts=23
dts_time=0.463866 
size=747.000000 
file_pkt_nb=35
stream_pkt_nb=24
duration_ts=1
duration_time=0.020168 
flag_key=K
[/PACKET]
[PACKET]
codec_type=video
stream_index=0
pts=24
pts_time=0.484034 
dts=24
dts_time=0.484034 
size=440.000000 
file_pkt_nb=36
stream_pkt_nb=25
duration_ts=1
duration_time=0.020168 
flag_key=K
[/PACKET]
[PACKET]
codec_type=audio
stream_index=1
pts=10240
pts_time=0.464399 
dts=10240
dts_time=0.464399 
size=136.000000 
file_pkt_nb=37
stream_pkt_nb=12
duration_ts=0
duration_time=0.000000 
flag_key=K
[/PACKET]
[PACKET]
codec_type=video
stream_index=0
pts=25
pts_time=0.504202 
dts=25
dts_time=0.504202 
size=22.000000 
file_pkt_nb=38
stream_pkt_nb=26
duration_ts=1
duration_time=0.020168 
flag_key=K
[/PACKET]
[PACKET]
codec_type=video
stream_index=0
pts=26
pts_time=0.524370 
dts=26
dts_time=0.524370 
size=630.000000 
file_pkt_nb=39
stream_pkt_nb=27
duration_ts=1
duration_time=0.020168 
flag_key=K
[/PACKET]
[PACKET]
codec_type=audio
stream_index=1
pts=11264
pts_time=0.510839 
dts=11264
dts_time=0.510839 
size=133.000000 
file_pkt_nb=40
stream_pkt_nb=13
duration_ts=0
duration_time=0.000000 
flag_key=K
[/PACKET]
[PACKET]
codec_type=video
stream_index=0
pts=27
pts_time=0.544538 
dts=27
dts_time=0.544538 
size=29.000000 
file_pkt_nb=41
stream_pkt_nb=28
duration_ts=1
duration_time=0.020168 
flag_key=K
[/PACKET]
[PACKET]
codec_type=video
stream_index=0
pts=28
pts_time=0.564706 
dts=28
dts_time=0.564706 
size=63.000000 
file_pkt_nb=42
stream_pkt_nb=29
duration_ts=1
duration_time=0.020168 
flag_key=K
[/PACKET]
[PACKET]
codec_type=audio
stream_index=1
pts=12288
pts_time=0.557279 
dts=12288
dts_time=0.557279 
size=146.000000 
file_pkt_nb=43
stream_pkt_nb=14
duration_ts=0
duration_time=0.000000 
flag_key=K
[/PACKET]
[PACKET]
codec_type=video
stream_index=0
pts=29
pts_time=0.584874 
dts=29
dts_time=0.584874 
size=761.000000 
file_pkt_nb=44
stream_pkt_nb=30
duration_ts=1
duration_time=0.020168 
flag_key=K
[/PACKET]
[PACKET]
codec_type=video
stream_index=0
pts=30
pts_time=0.605042 
dts=30
dts_time=0.605042 
size=79.000000 
file_pkt_nb=45
stream_pkt_nb=31
duration_ts=1
duration_time=0.020168 
flag_key=K
[/PACKET]
[PACKET]
codec_type=video
stream_index=0
pts=31
pts_time=0.625210 
dts=31
dts_time=0.625210 
size=2716.000000 
file_pkt_nb=46
stream_pkt_nb=32
duration_ts=1
duration_time=0.020168 
flag_key=K
[/PACKET]
[PACKET]
codec_type=audio
stream_index=1
pts=13312
pts_time=0.603719 
dts=13312
dts_time=0.603719 
size=145.000000 
file_pkt_nb=47
stream_pkt_nb=15
duration_ts=0
duration_time=0.000000 
flag_key=K
[/PACKET]
[PACKET]
codec_type=video
stream_index=0
pts=32
pts_time=0.645378 
dts=32
dts_time=0.645378 
size=16.000000 
file_pkt_nb=48
stream_pkt_nb=33
duration_ts=1
duration_time=0.020168 
flag_key=K
[/PACKET]
[PACKET]
codec_type=video
stream_index=0
pts=33
pts_time=0.665546 
dts=33
dts_time=0.665546 
size=324.000000 
file_pkt_nb=49
stream_pkt_nb=34
duration_ts=1
duration_time=0.020168 
flag_key=K
[/PACKET]
[PACKET]
codec_type=audio
stream_index=1
pts=14336
pts_time=0.650159 
dts=14336
dts_time=0.650159 
size=136.000000 
file_pkt_nb=50
stream_pkt_nb=16
duration_ts=0
duration_time=0.000000 
flag_key=K
[/PACKET]
[PACKET]
codec_type=video
stream_index=0
pts=34
pts_time=0.685714 
dts=34
dts_time=0.685714 
size=299.000000 
file_pkt_nb=51
stream_pkt_nb=35
duration_ts=1
duration_time=0.020168 
flag_key=K
[/PACKET]
[PACKET]
codec_type=video
stream_index=0
pts=35
pts_time=0.705882 
dts=35
dts_time=0.705882 
size=1435.000000 
file_pkt_nb=52
stream_pkt_nb=36
duration_ts=1
duration_time=0.020168 
flag_key=K
[/PACKET]
[PACKET]
codec_type=audio
stream_index=1
pts=15360
pts_time=0.696599 
dts=15360
dts_time=0.696599 
size=138.000000 
file_pkt_nb=53
stream_pkt_nb=17
duration_ts=0
duration_time=0.000000 
flag_key=K
[/PACKET]
[PACKET]
codec_type=video
stream_index=0
pts=36
pts_time=0.726050 
dts=36
dts_time=0.726050 
size=31.000000 
file_pkt_nb=54
stream_pkt_nb=37
duration_ts=1
duration_time=0.020168 
flag_key=K
[/PACKET]
[PACKET]
codec_type=video
stream_index=0
pts=37
pts_time=0.746218 
dts=37
dts_time=0.746218 
size=183.000000 
file_pkt_nb=55
stream_pkt_nb=38
duration_ts=1
duration_time=0.020168 
flag_key=K
[/PACKET]
[PACKET]
codec_type=video
stream_index=0
pts=38
pts_time=0.766387 
dts=38
dts_time=0.766387 
size=17.000000 
file_pkt_nb=56
stream_pkt_nb=39
duration_ts=1
duration_time=0.020168 
flag_key=K
[/PACKET]
[PACKET]
codec_type=audio
stream_index=1
pts=16384
pts_time=0.743039 
dts=16384
dts_time=0.743039 
size=117.000000 
file_pkt_nb=57
stream_pkt_nb=18
duration_ts=0
duration_time=0.000000 
flag_key=K
[/PACKET]
[PACKET]
codec_type=video
stream_index=0
pts=39
pts_time=0.786555 
dts=39
dts_time=0.786555 
size=372.000000 
file_pkt_nb=58
stream_pkt_nb=40
duration_ts=1
duration_time=0.020168 
flag_key=K
[/PACKET]
[PACKET]
codec_type=video
stream_index=0
pts=40
pts_time=0.806723 
dts=40
dts_time=0.806723 
size=90.000000 
file_pkt_nb=59
stream_pkt_nb=41
duration_ts=1
duration_time=0.020168 
flag_key=K
[/PACKET]
[PACKET]
codec_type=audio
stream_index=1
pts=17408
pts_time=0.789478 
dts=17408
dts_time=0.789478 
size=124.000000 
file_pkt_nb=60
stream_pkt_nb=19
duration_ts=0
duration_time=0.000000 
flag_key=K
[/PACKET]
[PACKET]
codec_type=video
stream_index=0
pts=41
pts_time=0.826891 
dts=41
dts_time=0.826891 
size=682.000000 
file_pkt_nb=61
stream_pkt_nb=42
duration_ts=1
duration_time=0.020168 
flag_key=K
[/PACKET]
[PACKET]
codec_type=video
stream_index=0
pts=42
pts_time=0.847059 
dts=42
dts_time=0.847059 
size=26.000000 
file_pkt_nb=62
stream_pkt_nb=43
duration_ts=1
duration_time=0.020168 
flag_key=K
[/PACKET]
[PACKET]
codec_type=audio
stream_index=1
pts=18432
pts_time=0.835918 
dts=18432
dts_time=0.835918 
size=111.000000 
file_pkt_nb=63
stream_pkt_nb=20
duration_ts=0
duration_time=0.000000 
flag_key=K
[/PACKET]
[PACKET]
codec_type=video
stream_index=0
pts=43
pts_time=0.867227 
dts=43
dts_time=0.867227 
size=2871.000000 
file_pkt_nb=64
stream_pkt_nb=44
duration_ts=1
duration_time=0.020168 
flag_key=K
[/PACKET]
[PACKET]
codec_type=video
stream_index=0
pts=44
pts_time=0.887395 
dts=44
dts_time=0.887395 
size=505.000000 
file_pkt_nb=65
stream_pkt_nb=45
duration_ts=1
duration_time=0.020168 
flag_key=K
[/PACKET]
[PACKET]
codec_type=video
stream_index=0
pts=45
pts_time=0.907563 
dts=45
dts_time=0.907563 
size=35.000000 
file_pkt_nb=66
stream_pkt_nb=46
duration_ts=1
duration_time=0.020168 
flag_key=K
[/PACKET]
[PACKET]
codec_type=audio
stream_index=1
pts=19456
pts_time=0.882358 
dts=19456
dts_time=0.882358 
size=108.000000 
file_pkt_nb=67
stream_pkt_nb=21
duration_ts=0
duration_time=0.000000 
flag_key=K
[/PACKET]
[PACKET]
codec_type=video
stream_index=0
pts=46
pts_time=0.927731 
dts=46
dts_time=0.927731 
size=1483.000000 
file_pkt_nb=68
stream_pkt_nb=47
duration_ts=1
duration_time=0.020168 
flag_key=K
[/PACKET]
[PACKET]
codec_type=video
stream_index=0
pts=47
pts_time=0.947899 
dts=47
dts_time=0.947899 
size=15.000000 
file_pkt_nb=69
stream_pkt_nb=48
duration_ts=1
duration_time=0.020168 
flag_key=K
[/PACKET]
[PACKET]
codec_type=audio
stream_index=1
pts=20480
pts_time=0.928798 
dts=20480
dts_time=0.928798 
size=104.000000 
file_pkt_nb=70
stream_pkt_nb=22
duration_ts=0
duration_time=0.000000 
flag_key=K
[/PACKET]
[PACKET]
codec_type=video
stream_index=0
pts=48
pts_time=0.968067 
dts=48
dts_time=0.968067 
size=167.000000 
file_pkt_nb=71
stream_pkt_nb=49
duration_ts=1
duration_time=0.020168 
flag_key=K
[/PACKET]
[PACKET]
codec_type=video
stream_index=0
pts=49
pts_time=0.988235 
dts=49
dts_time=0.988235 
size=20.000000 
file_pkt_nb=72
stream_pkt_nb=50
duration_ts=1
duration_time=0.020168 
flag_key=K
[/PACKET]
[PACKET]
codec_type=audio
stream_index=1
pts=21504
pts_time=0.975238 
dts=21504
dts_time=0.975238 
size=129.000000 
file_pkt_nb=73
stream_pkt_nb=23
duration_ts=0
duration_time=0.000000 
flag_key=K
[/PACKET]
[PACKET]
codec_type=video
stream_index=0
pts=50
pts_time=1.008403 
dts=50
dts_time=1.008403 
size=759.000000 
file_pkt_nb=74
stream_pkt_nb=51
duration_ts=1
duration_time=0.020168 
flag_key=K
[/PACKET]
[PACKET]
codec_type=video
stream_index=0
pts=51
pts_time=1.028571 
dts=51
dts_time=1.028571 
size=138.000000 
file_pkt_nb=75
stream_pkt_nb=52
duration_ts=1
duration_time=0.020168 
flag_key=K
[/PACKET]
[PACKET]
codec_type=audio
stream_index=1
pts=22528
pts_time=1.021678 
dts=22528
dts_time=1.021678 
size=140.000000 
file_pkt_nb=76
stream_pkt_nb=24
duration_ts=0
duration_time=0.000000 
flag_key=K
[/PACKET]
[PACKET]
codec_type=video
stream_index=0
pts=52
pts_time=1.048739 
dts=52
dts_time=1.048739 
size=174.000000 
file_pkt_nb=77
stream_pkt_nb=53
duration_ts=1
duration_time=0.020168 
flag_key=K
[/PACKET]
[PACKET]
codec_type=video
stream_index=0
pts=53
pts_time=1.068908 
dts=53
dts_time=1.068908 
size=21.000000 
file_pkt_nb=78
stream_pkt_nb=54
duration_ts=1
duration_time=0.020168 
flag_key=K
[/PACKET]
[PACKET]
codec_type=video
stream_index=0
pts=54
pts_time=1.089076 
dts=54
dts_time=1.089076 
size=2746.000000 
file_pkt_nb=79
stream_pkt_nb=55
duration_ts=1
duration_time=0.020168 
flag_key=K
[/PACKET]
[PACKET]
codec_type=audio
stream_index=1
pts=23552
pts_time=1.068118 
dts=23552
dts_time=1.068118 
size=131.000000 
file_pkt_nb=80
stream_pkt_nb=25
duration_ts=0
duration_time=0.000000 
flag_key=K
[/PACKET]
[PACKET]
codec_type=video
stream_index=0
pts=55
pts_time=1.109244 
dts=55
dts_time=1.109244 
size=984.000000 
file_pkt_nb=81
stream_pkt_nb=56
duration_ts=1
duration_time=0.020168 
flag_key=K
[/PACKET]
[PACKET]
codec_type=video
stream_index=0
pts=56
pts_time=1.129412 
dts=56
dts_time=1.129412 
size=20.000000 
file_pkt_nb=82
stream_pkt_nb=57
duration_ts=1
duration_time=0.020168 
flag_key=K
[/PACKET]
[PACKET]
codec_type=audio
stream_index=1
pts=24576
pts_time=1.114558 
dts=24576
dts_time=1.114558 
size=135.000000 
file_pkt_nb=83
stream_pkt_nb=26
duration_ts=0
duration_time=0.000000 
flag_key=K
[/PACKET]
[PACKET]
codec_type=video
stream_index=0
pts=57
pts_time=1.149580 
dts=57
dts_time=1.149580 
size=171.000000 
file_pkt_nb=84
stream_pkt_nb=58
duration_ts=1
duration_time=0.020168 
flag_key=K
[/PACKET]
[PACKET]
codec_type=video
stream_index=0
pts=58
pts_time=1.169748 
dts=58
dts_time=1.169748 
size=23.000000 
file_pkt_nb=85
stream_pkt_nb=59
duration_ts=1
duration_time=0.020168 
flag_key=K
[/PACKET]
[PACKET]
codec_type=audio
stream_index=1
pts=25600
pts_time=1.160998 
dts=25600
dts_time=1.160998 
size=138.000000 
file_pkt_nb=86
stream_pkt_nb=27
duration_ts=0
duration_time=0.000000 
flag_key=K
[/PACKET]
[PACKET]
codec_type=video
stream_index=0
pts=59
pts_time=1.189916 
dts=59
dts_time=1.189916 
size=1182.000000 
file_pkt_nb=87
stream_pkt_nb=60
duration_ts=1
duration_time=0.020168 
flag_key=K
[/PACKET]
[PACKET]
codec_type=video
stream_index=0
pts=60
pts_time=1.210084 
dts=60
dts_time=1.210084 
size=18.000000 
file_pkt_nb=88
stream_pkt_nb=61
duration_ts=1
duration_time=0.020168 
flag_key=K
[/PACKET]
[PACKET]
codec_type=video
stream_index=0
pts=61
pts_time=1.230252 
dts=61
dts_time=1.230252 
size=26.000000 
file_pkt_nb=89
stream_pkt_nb=62
duration_ts=1
duration_time=0.020168 
flag_key=K
[/PACKET]
[PACKET]
codec_type=audio
stream_index=1
pts=26624
pts_time=1.207438 
dts=26624
dts_time=1.207438 
size=143.000000 
file_pkt_nb=90
stream_pkt_nb=28
duration_ts=0
duration_time=0.000000 
flag_key=K
[/PACKET]
[PACKET]
codec_type=video
stream_index=0
pts=62
pts_time=1.250420 
dts=62
dts_time=1.250420 
size=48.000000 
file_pkt_nb=91
stream_pkt_nb=63
duration_ts=1
duration_time=0.020168 
flag_key=K
[/PACKET]
[PACKET]
codec_type=video
stream_index=0
pts=63
pts_time=1.270588 
dts=63
dts_time=1.270588 
size=1412.000000 
file_pkt_nb=92
stream_pkt_nb=64
duration_ts=1
duration_time=0.020168 
flag_key=K
[/PACKET]
[PACKET]
codec_type=audio
stream_index=1
pts=27648
pts_time=1.253878 
dts=27648
dts_time=1.253878 
size=140.000000 
file_pkt_nb=93
stream_pkt_nb=29
duration_ts=0
duration_time=0.000000 
flag_key=K
[/PACKET]
[PACKET]
codec_type=video
stream_index=0
pts=64
pts_time=1.290756 
dts=64
dts_time=1.290756 
size=37.000000 
file_pkt_nb=94
stream_pkt_nb=65
duration_ts=1
duration_time=0.020168 
flag_key=K
[/PACKET]
[PACKET]
codec_type=video
stream_index=0
pts=65
pts_time=1.310924 
dts=65
dts_time=1.310924 
size=2080.000000 
file_pkt_nb=95
stream_pkt_nb=66
duration_ts=1
duration_time=0.020168 
flag_key=K
[/PACKET]
[PACKET]
codec_type=audio
stream_index=1
pts=28672
pts_time=1.300317 
dts=28672
dts_time=1.300317 
size=156.000000 
file_pkt_nb=96
stream_pkt_nb=30
duration_ts=0
duration_time=0.000000 
flag_key=K
[/PACKET]
[PACKET]
codec_type=video
stream_index=0
pts=66
pts_time=1.331092 
dts=66
dts_time=1.331092 
size=198.000000 
file_pkt_nb=97
stream_pkt_nb=67
duration_ts=1
duration_time=0.020168 
flag_key=K
[/PACKET]
[PACKET]
codec_type=video
stream_index=0
pts=67
pts_time=1.351261 
dts=67
dts_time=1.351261 
size=43.000000 
file_pkt_nb=98
stream_pkt_nb=68
duration_ts=1
duration_time=0.020168 
flag_key=K
[/PACKET]
[PACKET]
codec_type=video
stream_index=0
pts=68
pts_time=1.371429 
dts=68
dts_time=1.371429 
size=2104.000000 
file_pkt_nb=99
stream_pkt_nb=69
duration_ts=1
duration_time=0.020168 
flag_key=K
[/PACKET]
[PACKET]
codec_type=audio
stream_index=1
pts=29696
pts_time=1.346757 
dts=29696
dts_time=1.346757 
size=133.000000 
file_pkt_nb=100
stream_pkt_nb=31
duration_ts=0
duration_time=0.000000 
flag_key=K
[/PACKET]
[PACKET]
codec_type=video
stream_index=0
pts=69
pts_time=1.391597 
dts=69
dts_time=1.391597 
size=21.000000 
file_pkt_nb=101
stream_pkt_nb=70
duration_ts=1
duration_time=0.020168 
flag_key=K
[/PACKET]
[PACKET]
codec_type=video
stream_index=0
pts=70
pts_time=1.411765 
dts=70
dts_time=1.411765 
size=1417.000000 
file_pkt_nb=102
stream_pkt_nb=71
duration_ts=1
duration_time=0.020168 
flag_key=K
[/PACKET]
[PACKET]
codec_type=audio
stream_index=1
pts=30720
pts_time=1.393197 
dts=30720
dts_time=1.393197 
size=124.000000 
file_pkt_nb=103
stream_pkt_nb=32
duration_ts=0
duration_time=0.000000 
flag_key=K
[/PACKET]
[PACKET]
codec_type=video
stream_index=0
pts=71
pts_time=1.431933 
dts=71
dts_time=1.431933 
size=37.000000 
file_pkt_nb=104
stream_pkt_nb=72
duration_ts=1
duration_time=0.020168 
flag_key=K
[/PACKET]
[PACKET]
codec_type=video
stream_index=0
pts=72
pts_time=1.452101 
dts=72
dts_time=1.452101 
size=52.000000 
file_pkt_nb=105
stream_pkt_nb=73
duration_ts=1
duration_time=0.020168 
flag_key=K
[/PACKET]
[PACKET]
codec_type=audio
stream_index=1
pts=31744
pts_time=1.439637 
dts=31744
dts_time=1.439637 
size=119.000000 
file_pkt_nb=106
stream_pkt_nb=33
duration_ts=0
duration_time=0.000000 
flag_key=K
[/PACKET]
[PACKET]
codec_type=video
stream_index=0
pts=73
pts_time=1.472269 
dts=73
dts_time=1.472269 
size=850.000000 
file_pkt_nb=107
stream_pkt_nb=74
duration_ts=1
duration_time=0.020168 
flag_key=K
[/PACKET]
[PACKET]
codec_type=video
stream_index=0
pts=74
pts_time=1.492437 
dts=74
dts_time=1.492437 
size=15.000000 
file_pkt_nb=108
stream_pkt_nb=75
duration_ts=1
duration_time=0.020168 
flag_key=K
[/PACKET]
[PACKET]
codec_type=audio
stream_index=1
pts=32768
pts_time=1.486077 
dts=32768
dts_time=1.486077 
size=105.000000 
file_pkt_nb=109
stream_pkt_nb=34
duration_ts=0
duration_time=0.000000 
flag_key=K
[/PACKET]
[PACKET]
codec_type=video
stream_index=0
pts=75
pts_time=1.512605 
dts=75
dts_time=1.512605 
size=1646.000000 
file_pkt_nb=110
stream_pkt_nb=76
duration_ts=1
duration_time=0.020168 
flag_key=K
[/PACKET]
[PACKET]
codec_type=video
stream_index=0
pts=76
pts_time=1.532773 
dts=76
dts_time=1.532773 
size=15.000000 
file_pkt_nb=111
stream_pkt_nb=77
duration_ts=1
duration_time=0.020168 
flag_key=K
[/PACKET]
[PACKET]
codec_type=video
stream_index=0
pts=77
pts_time=1.552941 
dts=77
dts_time=1.552941 
size=958.000000 
file_pkt_nb=112
stream_pkt_nb=78
duration_ts=1
duration_time=0.020168 
flag_key=K
[/PACKET]
[PACKET]
codec_type=audio
stream_index=1
pts=33792
pts_time=1.532517 
dts=33792
dts_time=1.532517 
size=131.000000 
file_pkt_nb=113
stream_pkt_nb=35
duration_ts=0
duration_time=0.000000 
flag_key=K
[/PACKET]
[PACKET]
codec_type=video
stream_index=0
pts=78
pts_time=1.573109 
dts=78
dts_time=1.573109 
size=30.000000 
file_pkt_nb=114
stream_pkt_nb=79
duration_ts=1
duration_time=0.020168 
flag_key=K
[/PACKET]
[PACKET]
codec_type=video
stream_index=0
pts=79
pts_time=1.593277 
dts=79
dts_time=1.593277 
size=548.000000 
file_pkt_nb=115
stream_pkt_nb=80
duration_ts=1
duration_time=0.020168 
flag_key=K
[/PACKET]
[PACKET]
codec_type=audio
stream_index=1
pts=34816
pts_time=1.578957 
dts=34816
dts_time=1.578957 
size=135.000000 
file_pkt_nb=116
stream_pkt_nb=36
duration_ts=0
duration_time=0.000000 
flag_key=K
[/PACKET]
[PACKET]
codec_type=video
stream_index=0
pts=80
pts_time=1.613445 
dts=80
dts_time=1.613445 
size=16.000000 
file_pkt_nb=117
stream_pkt_nb=81
duration_ts=1
duration_time=0.020168 
flag_key=K
[/PACKET]
[PACKET]
codec_type=video
stream_index=0
pts=81
pts_time=1.633613 
dts=81
dts_time=1.633613 
size=41.000000 
file_pkt_nb=118
stream_pkt_nb=82
duration_ts=1
duration_time=0.020168 
flag_key=K
[/PACKET]
[PACKET]
codec_type=audio
stream_index=1
pts=35840
pts_time=1.625397 
dts=35840
dts_time=1.625397 
size=163.000000 
file_pkt_nb=119
stream_pkt_nb=37
duration_ts=0
duration_time=0.000000 
flag_key=K
[/PACKET]
[PACKET]
codec_type=video
stream_index=0
pts=82
pts_time=1.653782 
dts=82
dts_time=1.653782 
size=263.000000 
file_pkt_nb=120
stream_pkt_nb=83
duration_ts=1
duration_time=0.020168 
flag_key=K
[/PACKET]
[PACKET]
codec_type=video
stream_index=0
pts=83
pts_time=1.673950 
dts=83
dts_time=1.673950 
size=104.000000 
file_pkt_nb=121
stream_pkt_nb=84
duration_ts=1
duration_time=0.020168 
flag_key=K
[/PACKET]
[PACKET]
codec_type=video
stream_index=0
pts=84
pts_time=1.694118 
dts=84
dts_time=1.694118 
size=152.000000 
file_pkt_nb=122
stream_pkt_nb=85
duration_ts=1
duration_time=0.020168 
flag_key=K
[/PACKET]
[PACKET]
codec_type=audio
stream_index=1
pts=36864
pts_time=1.671837 
dts=36864
dts_time=1.671837 
size=132.000000 
file_pkt_nb=123
stream_pkt_nb=38
duration_ts=0
duration_time=0.000000 
flag_key=K
[/PACKET]
[PACKET]
codec_type=video
stream_index=0
pts=85
pts_time=1.714286 
dts=85
dts_time=1.714286 
size=218.000000 
file_pkt_nb=124
stream_pkt_nb=86
duration_ts=1
duration_time=0.020168 
flag_key=K
[/PACKET]
[PACKET]
codec_type=video
stream_index=0
pts=86
pts_time=1.734454 
dts=86
dts_time=1.734454 
size=2028.000000 
file_pkt_nb=125
stream_pkt_nb=87
duration_ts=1
duration_time=0.020168 
flag_key=K
[/PACKET]
[PACKET]
codec_type=audio
stream_index=1
pts=37888
pts_time=1.718277 
dts=37888
dts_time=1.718277 
size=148.000000 
file_pkt_nb=126
stream_pkt_nb=39
duration_ts=0
duration_time=0.000000 
flag_key=K
[/PACKET]
[PACKET]
codec_type=video
stream_index=0
pts=87
pts_time=1.754622 
dts=87
dts_time=1.754622 
size=17.000000 
file_pkt_nb=127
stream_pkt_nb=88
duration_ts=1
duration_time=0.020168 
flag_key=K
[/PACKET]
[PACKET]
codec_type=video
stream_index=0
pts=88
pts_time=1.774790 
dts=88
dts_time=1.774790 
size=621.000000 
file_pkt_nb=128
stream_pkt_nb=89
duration_ts=1
duration_time=0.020168 
flag_key=K
[/PACKET]
[PACKET]
codec_type=audio
stream_index=1
pts=38912
pts_time=1.764717 
dts=38912
dts_time=1.764717 
size=155.000000 
file_pkt_nb=129
stream_pkt_nb=40
duration_ts=0
duration_time=0.000000 
flag_key=K
[/PACKET]
[PACKET]
codec_type=video
stream_index=0
pts=89
pts_time=1.794958 
dts=89
dts_time=1.794958 
size=107.000000 
file_pkt_nb=130
stream_pkt_nb=90
duration_ts=1
duration_time=0.020168 
flag_key=K
[/PACKET]
[PACKET]
codec_type=video
stream_index=0
pts=90
pts_time=1.815126 
dts=90
dts_time=1.815126 
size=516.000000 
file_pkt_nb=131
stream_pkt_nb=91
duration_ts=1
duration_time=0.020168 
flag_key=K
[/PACKET]
[PACKET]
codec_type=video
stream_index=0
pts=91
pts_time=1.835294 
dts=91
dts_time=1.835294 
size=66.000000 
file_pkt_nb=132
stream_pkt_nb=92
duration_ts=1
duration_time=0.020168 
flag_key=K
[/PACKET]
[PACKET]
codec_type=audio
stream_index=1
pts=39936
pts_time=1.811156 
dts=39936
dts_time=1.811156 
size=154.000000 
file_pkt_nb=133
stream_pkt_nb=41
duration_ts=0
duration_time=0.000000 
flag_key=K
[/PACKET]
[PACKET]
codec_type=video
stream_index=0
pts=92
pts_time=1.855462 
dts=92
dts_time=1.855462 
size=948.000000 
file_pkt_nb=134
stream_pkt_nb=93
duration_ts=1
duration_time=0.020168 
flag_key=K
[/PACKET]
[PACKET]
codec_type=video
stream_index=0
pts=93
pts_time=1.875630 
dts=93
dts_time=1.875630 
size=27.000000 
file_pkt_nb=135
stream_pkt_nb=94
duration_ts=1
duration_time=0.020168 
flag_key=K
[/PACKET]
[PACKET]
codec_type=audio
stream_index=1
pts=40960
pts_time=1.857596 
dts=40960
dts_time=1.857596 
size=147.000000 
file_pkt_nb=136
stream_pkt_nb=42
duration_ts=0
duration_time=0.000000 
flag_key=K
[/PACKET]
[PACKET]
codec_type=video
stream_index=0
pts=94
pts_time=1.895798 
dts=94
dts_time=1.895798 
size=1007.000000 
file_pkt_nb=137
stream_pkt_nb=95
duration_ts=1
duration_time=0.020168 
flag_key=K
[/PACKET]
[PACKET]
codec_type=video
stream_index=0
pts=95
pts_time=1.915966 
dts=95
dts_time=1.915966 
size=36.000000 
file_pkt_nb=138
stream_pkt_nb=96
duration_ts=1
duration_time=0.020168 
flag_key=K
[/PACKET]
[PACKET]
codec_type=audio
stream_index=1
pts=41984
pts_time=1.904036 
dts=41984
dts_time=1.904036 
size=140.000000 
file_pkt_nb=139
stream_pkt_nb=43
duration_ts=0
duration_time=0.000000 
flag_key=K
[/PACKET]
[PACKET]
codec_type=video
stream_index=0
pts=96
pts_time=1.936134 
dts=96
dts_time=1.936134 
size=361.000000 
file_pkt_nb=140
stream_pkt_nb=97
duration_ts=1
duration_time=0.020168 
flag_key=K
[/PACKET]
[PACKET]
codec_type=video
stream_index=0
pts=97
pts_time=1.956303 
dts=97
dts_time=1.956303 
size=37.000000 
file_pkt_nb=141
stream_pkt_nb=98
duration_ts=1
duration_time=0.020168 
flag_key=K
[/PACKET]
[PACKET]
codec_type=video
stream_index=0
pts=98
pts_time=1.976471 
dts=98
dts_time=1.976471 
size=3672.000000 
file_pkt_nb=142
stream_pkt_nb=99
duration_ts=1
duration_time=0.020168 
flag_key=K
[/PACKET]
[PACKET]
codec_type=audio
stream_index=1
pts=43008
pts_time=1.950476 
dts=43008
dts_time=1.950476 
size=140.000000 
file_pkt_nb=143
stream_pkt_nb=44
duration_ts=0
duration_time=0.000000 
flag_key=K
[/PACKET]
[PACKET]
codec_type=video
stream_index=0
pts=99
pts_time=1.996639 
dts=99
dts_time=1.996639 
size=29.000000 
file_pkt_nb=144
stream_pkt_nb=100
duration_ts=1
duration_time=0.020168 
flag_key=K
[/PACKET]
[PACKET]
codec_type=video
stream_index=0
pts=100
pts_time=2.016807 
dts=100
dts_time=2.016807 
size=303.000000 
file_pkt_nb=145
stream_pkt_nb=101
duration_ts=1
duration_time=0.020168 
flag_key=K
[/PACKET]
[PACKET]
codec_type=audio
stream_index=1
pts=44032
pts_time=1.996916 
dts=44032
dts_time=1.996916 
size=146.000000 
file_pkt_nb=146
stream_pkt_nb=45
duration_ts=0
duration_time=0.000000 
flag_key=K
[/PACKET]
[PACKET]
codec_type=video
stream_index=0
pts=101
pts_time=2.036975 
dts=101
dts_time=2.036975 
size=228.000000 
file_pkt_nb=147
stream_pkt_nb=102
duration_ts=1
duration_time=0.020168 
flag_key=K
[/PACKET]
[PACKET]
codec_type=video
stream_index=0
pts=102
pts_time=2.057143 
dts=102
dts_time=2.057143 
size=783.000000 
file_pkt_nb=148
stream_pkt_nb=103
duration_ts=1
duration_time=0.020168 
flag_key=K
[/PACKET]
[PACKET]
codec_type=audio
stream_index=1
pts=45056
pts_time=2.043356 
dts=45056
dts_time=2.043356 
size=158.000000 
file_pkt_nb=149
stream_pkt_nb=46
duration_ts=0
duration_time=0.000000 
flag_key=K
[/PACKET]
[PACKET]
codec_type=video
stream_index=0
pts=103
pts_time=2.077311 
dts=103
dts_time=2.077311 
size=14.000000 
file_pkt_nb=150
stream_pkt_nb=104
duration_ts=1
duration_time=0.020168 
flag_key=K
[/PACKET]
[PACKET]
codec_type=video
stream_index=0
pts=104
pts_time=2.097479 
dts=104
dts_time=2.097479 
size=546.000000 
file_pkt_nb=151
stream_pkt_nb=105
duration_ts=1
duration_time=0.020168 
flag_key=K
[/PACKET]
[PACKET]
codec_type=audio
stream_index=1
pts=46080
pts_time=2.089796 
dts=46080
dts_time=2.089796 
size=156.000000 
file_pkt_nb=152
stream_pkt_nb=47
duration_ts=0
duration_time=0.000000 
flag_key=K
[/PACKET]
[PACKET]
codec_type=video
stream_index=0
pts=105
pts_time=2.117647 
dts=105
dts_time=2.117647 
size=20.000000 
file_pkt_nb=153
stream_pkt_nb=106
duration_ts=1
duration_time=0.020168 
flag_key=K
[/PACKET]
[PACKET]
codec_type=video
stream_index=0
pts=106
pts_time=2.137815 
dts=106
dts_time=2.137815 
size=224.000000 
file_pkt_nb=154
stream_pkt_nb=107
duration_ts=1
duration_time=0.020168 
flag_key=K
[/PACKET]
[PACKET]
codec_type=video
stream_index=0
pts=107
pts_time=2.157983 
dts=107
dts_time=2.157983 
size=31.000000 
file_pkt_nb=155
stream_pkt_nb=108
duration_ts=1
duration_time=0.020168 
flag_key=K
[/PACKET]
[PACKET]
codec_type=audio
stream_index=1
pts=47104
pts_time=2.136236 
dts=47104
dts_time=2.136236 
size=157.000000 
file_pkt_nb=156
stream_pkt_nb=48
duration_ts=0
duration_time=0.000000 
flag_key=K
[/PACKET]
[PACKET]
codec_type=video
stream_index=0
pts=108
pts_time=2.178151 
dts=108
dts_time=2.178151 
size=830.000000 
file_pkt_nb=157
stream_pkt_nb=109
duration_ts=1
duration_time=0.020168 
flag_key=K
[/PACKET]
[PACKET]
codec_type=video
stream_index=0
pts=109
pts_time=2.198319 
dts=109
dts_time=2.198319 
size=29.000000 
file_pkt_nb=158
stream_pkt_nb=110
duration_ts=1
duration_time=0.020168 
flag_key=K
[/PACKET]
[PACKET]
codec_type=audio
stream_index=1
pts=48128
pts_time=2.182676 
dts=48128
dts_time=2.182676 
size=143.000000 
file_pkt_nb=159
stream_pkt_nb=49
duration_ts=0
duration_time=0.000000 
flag_key=K
[/PACKET]
[PACKET]
codec_type=video
stream_index=0
pts=110
pts_time=2.218487 
dts=110
dts_time=2.218487 
size=3157.000000 
file_pkt_nb=160
stream_pkt_nb=111
duration_ts=1
duration_time=0.020168 
flag_key=K
[/PACKET]
[PACKET]
codec_type=video
stream_index=0
pts=111
pts_time=2.238655 
dts=111
dts_time=2.238655 
size=27.000000 
file_pkt_nb=161
stream_pkt_nb=112
duration_ts=1
duration_time=0.020168 
flag_key=K
[/PACKET]
[PACKET]
codec_type=audio
stream_index=1
pts=49152
pts_time=2.229116 
dts=49152
dts_time=2.229116 
size=136.000000 
file_pkt_nb=162
stream_pkt_nb=50
duration_ts=0
duration_time=0.000000 
flag_key=K
[/PACKET]
[PACKET]
codec_type=video
stream_index=0
pts=112
pts_time=2.258824 
dts=112
dts_time=2.258824 
size=359.000000 
file_pkt_nb=163
stream_pkt_nb=113
duration_ts=1
duration_time=0.020168 
flag_key=K
[/PACKET]
[PACKET]
codec_type=video
stream_index=0
pts=113
pts_time=2.278992 
dts=113
dts_time=2.278992 
size=175.000000 
file_pkt_nb=164
stream_pkt_nb=114
duration_ts=1
duration_time=0.020168 
flag_key=K
[/PACKET]
[PACKET]
codec_type=video
stream_index=0
pts=114
pts_time=2.299160 
dts=114
dts_time=2.299160 
size=854.000000 
file_pkt_nb=165
stream_pkt_nb=115
duration_ts=1
duration_time=0.020168 
flag_key=K
[/PACKET]
[PACKET]
codec_type=audio
stream_index=1
pts=50176
pts_time=2.275556 
dts=50176
dts_time=2.275556 
size=142.000000 
file_pkt_nb=166
stream_pkt_nb=51
duration_ts=0
duration_time=0.000000 
flag_key=K
[/PACKET]
[PACKET]
codec_type=video
stream_index=0
pts=115
pts_time=2.319328 
dts=115
dts_time=2.319328 
size=673.000000 
file_pkt_nb=167
stream_pkt_nb=116
duration_ts=1
duration_time=0.020168 
flag_key=K
[/PACKET]
[PACKET]
codec_type=video
stream_index=0
pts=116
pts_time=2.339496 
dts=116
dts_time=2.339496 
size=18.000000 
file_pkt_nb=168
stream_pkt_nb=117
duration_ts=1
duration_time=0.020168 
flag_key=K
[/PACKET]
[PACKET]
codec_type=audio
stream_index=1
pts=51200
pts_time=2.321995 
dts=51200
dts_time=2.321995 
size=147.000000 
file_pkt_nb=169
stream_pkt_nb=52
duration_ts=0
duration_time=0.000000 
flag_key=K
[/PACKET]
[PACKET]
codec_type=video
stream_index=0
pts=117
pts_time=2.359664 
dts=117
dts_time=2.359664 
size=142.000000 
file_pkt_nb=170
stream_pkt_nb=118
duration_ts=1
duration_time=0.020168 
flag_key=K
[/PACKET]
[PACKET]
codec_type=video
stream_index=0
pts=118
pts_time=2.379832 
dts=118
dts_time=2.379832 
size=90.000000 
file_pkt_nb=171
stream_pkt_nb=119
duration_ts=1
duration_time=0.020168 
flag_key=K
[/PACKET]
[PACKET]
codec_type=audio
stream_index=1
pts=52224
pts_time=2.368435 
dts=52224
dts_time=2.368435 
size=142.000000 
file_pkt_nb=172
stream_pkt_nb=53
duration_ts=0
duration_time=0.000000 
flag_key=K
[/PACKET]
[PACKET]
codec_type=video
stream_index=0
pts=119
pts_time=2.400000 
dts=119
dts_time=2.400000 
size=489.000000 
file_pkt_nb=173
stream_pkt_nb=120
duration_ts=1
duration_time=0.020168 
flag_key=K
[/PACKET]
[PACKET]
codec_type=video
stream_index=0
pts=120
pts_time=2.420168 
dts=120
dts_time=2.420168 
size=26.000000 
file_pkt_nb=174
stream_pkt_nb=121
duration_ts=1
duration_time=0.020168 
flag_key=K
[/PACKET]
[PACKET]
codec_type=video
stream_index=0
pts=121
pts_time=2.440336 
dts=121
dts_time=2.440336 
size=3419.000000 
file_pkt_nb=175
stream_pkt_nb=122
duration_ts=1
duration_time=0.020168 
flag_key=K
[/PACKET]
[PACKET]
codec_type=audio
stream_index=1
pts=53248
pts_time=2.414875 
dts=53248
dts_time=2.414875 
size=139.000000 
file_pkt_nb=176
stream_pkt_nb=54
duration_ts=0
duration_time=0.000000 
flag_key=K
[/PACKET]
[PACKET]
codec_type=video
stream_index=0
pts=122
pts_time=2.460504 
dts=122
dts_time=2.460504 
size=14.000000 
file_pkt_nb=177
stream_pkt_nb=123
duration_ts=1
duration_time=0.020168 
flag_key=K
[/PACKET]
[PACKET]
codec_type=video
stream_index=0
pts=123
pts_time=2.480672 
dts=123
dts_time=2.480672 
size=373.000000 
file_pkt_nb=178
stream_pkt_nb=124
duration_ts=1
duration_time=0.020168 
flag_key=K
[/PACKET]
[PACKET]
codec_type=audio
stream_index=1
pts=54272
pts_time=2.461315 
dts=54272
dts_time=2.461315 
size=140.000000 
file_pkt_nb=179
stream_pkt_nb=55
duration_ts=0
duration_time=0.000000 
flag_key=K
[/PACKET]
[PACKET]
codec_type=video
stream_index=0
pts=124
pts_time=2.500840 
dts=124
dts_time=2.500840 
size=74.000000 
file_pkt_nb=180
stream_pkt_nb=125
duration_ts=1
duration_time=0.020168 
flag_key=K
[/PACKET]
[PACKET]
codec_type=video
stream_index=0
pts=125
pts_time=2.521008 
dts=125
dts_time=2.521008 
size=855.000000 
file_pkt_nb=181
stream_pkt_nb=126
duration_ts=1
duration_time=0.020168 
flag_key=K
[/PACKET]
[PACKET]
codec_type=audio
stream_index=1
pts=55296
pts_time=2.507755 
dts=55296
dts_time=2.507755 
size=140.000000 
file_pkt_nb=182
stream_pkt_nb=56
duration_ts=0
duration_time=0.000000 
flag_key=K
[/PACKET]
[PACKET]
codec_type=video
stream_index=0
pts=126
pts_time=2.541176 
dts=126
dts_time=2.541176 
size=23.000000 
file_pkt_nb=183
stream_pkt_nb=127
duration_ts=1
duration_time=0.020168 
flag_key=K
[/PACKET]
[PACKET]
codec_type=video
stream_index=0
pts=127
pts_time=2.561345 
dts=127
dts_time=2.561345 
size=235.000000 
file_pkt_nb=184
stream_pkt_nb=128
duration_ts=1
duration_time=0.020168 
flag_key=K
[/PACKET]
[PACKET]
codec_type=audio
stream_index=1
pts=56320
pts_time=2.554195 
dts=56320
dts_time=2.554195 
size=139.000000 
file_pkt_nb=185
stream_pkt_nb=57
duration_ts=0
duration_time=0.000000 
flag_key=K
[/PACKET]
[PACKET]
codec_type=video
stream_index=0
pts=128
pts_time=2.581513 
dts=128
dts_time=2.581513 
size=14.000000 
file_pkt_nb=186
stream_pkt_nb=129
duration_ts=1
duration_time=0.020168 
flag_key=K
[/PACKET]
[PACKET]
codec_type=video
stream_index=0
pts=129
pts_time=2.601681 
dts=129
dts_time=2.601681 
size=370.000000 
file_pkt_nb=187
stream_pkt_nb=130
duration_ts=1
duration_time=0.020168 
flag_key=K
[/PACKET]
[PACKET]
codec_type=video
stream_index=0
pts=130
pts_time=2.621849 
dts=130
dts_time=2.621849 
size=87.000000 
file_pkt_nb=188
stream_pkt_nb=131
duration_ts=1
duration_time=0.020168 
flag_key=K
[/PACKET]
[PACKET]
codec_type=audio
stream_index=1
pts=57344
pts_time=2.600635 
dts=57344
dts_time=2.600635 
size=143.000000 
file_pkt_nb=189
stream_pkt_nb=58
duration_ts=0
duration_time=0.000000 
flag_key=K
[/PACKET]
[PACKET]
codec_type=video
stream_index=0
pts=131
pts_time=2.642017 
dts=131
dts_time=2.642017 
size=856.000000 
file_pkt_nb=190
stream_pkt_nb=132
duration_ts=1
duration_time=0.020168 
flag_key=K
[/PACKET]
[PACKET]
codec_type=video
stream_index=0
pts=132
pts_time=2.662185 
dts=132
dts_time=2.662185 
size=22.000000 
file_pkt_nb=191
stream_pkt_nb=133
duration_ts=1
duration_time=0.020168 
flag_key=K
[/PACKET]
[PACKET]
codec_type=audio
stream_index=1
pts=58368
pts_time=2.647075 
dts=58368
dts_time=2.647075 
size=141.000000 
file_pkt_nb=192
stream_pkt_nb=59
duration_ts=0
duration_time=0.000000 
flag_key=K
[/PACKET]
[PACKET]
codec_type=video
stream_index=0
pts=133
pts_time=2.682353 
dts=133
dts_time=2.682353 
size=3028.000000 
file_pkt_nb=193
stream_pkt_nb=134
duration_ts=1
duration_time=0.020168 
flag_key=K
[/PACKET]
[PACKET]
codec_type=video
stream_index=0
pts=134
pts_time=2.702521 
dts=134
dts_time=2.702521 
size=127.000000 
file_pkt_nb=194
stream_pkt_nb=135
duration_ts=1
duration_time=0.020168 
flag_key=K
[/PACKET]
[PACKET]
codec_type=audio
stream_index=1
pts=59392
pts_time=2.693515 
dts=59392
dts_time=2.693515 
size=134.000000 
file_pkt_nb=195
stream_pkt_nb=60
duration_ts=0
duration_time=0.000000 
flag_key=K
[/PACKET]
[PACKET]
codec_type=video
stream_index=0
pts=135
pts_time=2.722689 
dts=135
dts_time=2.722689 
size=18.000000 
file_pkt_nb=196
stream_pkt_nb=136
duration_ts=1
duration_time=0.020168 
flag_key=K
[/PACKET]
[PACKET]
codec_type=video
stream_index=0
pts=136
pts_time=2.742857 
dts=136
dts_time=2.742857 
size=773.000000 
file_pkt_nb=197
stream_pkt_nb=137
duration_ts=1
duration_time=0.020168 
flag_key=K
[/PACKET]
[PACKET]
codec_type=video
stream_index=0
pts=137
pts_time=2.763025 
dts=137
dts_time=2.763025 
size=63.000000 
file_pkt_nb=198
stream_pkt_nb=138
duration_ts=1
duration_time=0.020168 
flag_key=K
[/PACKET]
[PACKET]
codec_type=audio
stream_index=1
pts=60416
pts_time=2.739955 
dts=60416
dts_time=2.739955 
size=124.000000 
file_pkt_nb=199
stream_pkt_nb=61
duration_ts=0
duration_time=0.000000 
flag_key=K
[/PACKET]
[PACKET]
codec_type=video
stream_index=0
pts=138
pts_time=2.783193 
dts=138
dts_time=2.783193 
size=666.000000 
file_pkt_nb=200
stream_pkt_nb=139
duration_ts=1
duration_time=0.020168 
flag_key=K
[/PACKET]
[PACKET]
codec_type=video
stream_index=0
pts=139
pts_time=2.803361 
dts=139
dts_time=2.803361 
size=164.000000 
file_pkt_nb=201
stream_pkt_nb=140
duration_ts=1
duration_time=0.020168 
flag_key=K
[/PACKET]
[PACKET]
codec_type=audio
stream_index=1
pts=61440
pts_time=2.786395 
dts=61440
dts_time=2.786395 
size=132.000000 
file_pkt_nb=202
stream_pkt_nb=62
duration_ts=0
duration_time=0.000000 
flag_key=K
[/PACKET]
[PACKET]
codec_type=video
stream_index=0
pts=140
pts_time=2.823529 
dts=140
dts_time=2.823529 
size=68.000000 
file_pkt_nb=203
stream_pkt_nb=141
duration_ts=1
duration_time=0.020168 
flag_key=K
[/PACKET]
[PACKET]
codec_type=video
stream_index=0
pts=141
pts_time=2.843697 
dts=141
dts_time=2.843697 
size=360.000000 
file_pkt_nb=204
stream_pkt_nb=142
duration_ts=1
duration_time=0.020168 
flag_key=K
[/PACKET]
[PACKET]
codec_type=audio
stream_index=1
pts=62464
pts_time=2.832834 
dts=62464
dts_time=2.832834 
size=134.000000 
file_pkt_nb=205
stream_pkt_nb=63
duration_ts=0
duration_time=0.000000 
flag_key=K
[/PACKET]
[PACKET]
codec_type=video
stream_index=0
pts=142
pts_time=2.863866 
dts=142
dts_time=2.863866 
size=15.000000 
file_pkt_nb=206
stream_pkt_nb=143
duration_ts=1
duration_time=0.020168 
flag_key=K
[/PACKET]
[PACKET]
codec_type=video
stream_index=0
pts=143
pts_time=2.884034 
dts=143
dts_time=2.884034 
size=3709.000000 
file_pkt_nb=207
stream_pkt_nb=144
duration_ts=1
duration_time=0.020168 
flag_key=K
[/PACKET]
[PACKET]
codec_type=video
stream_index=0
pts=144
pts_time=2.904202 
dts=144
dts_time=2.904202 
size=372.000000 
file_pkt_nb=208
stream_pkt_nb=145
duration_ts=1
duration_time=0.020168 
flag_key=K
[/PACKET]
[PACKET]
codec_type=audio
stream_index=1
pts=63488
pts_time=2.879274 
dts=63488
dts_time=2.879274 
size=131.000000 
file_pkt_nb=209
stream_pkt_nb=64
duration_ts=0
duration_time=0.000000 
flag_key=K
[/PACKET]
[PACKET]
codec_type=video
stream_index=0
pts=145
pts_time=2.924370 
dts=145
dts_time=2.924370 
size=41.000000 
file_pkt_nb=210
stream_pkt_nb=146
duration_ts=1
duration_time=0.020168 
flag_key=K
[/PACKET]
[PACKET]
codec_type=video
stream_index=0
pts=146
pts_time=2.944538 
dts=146
dts_time=2.944538 
size=823.000000 
file_pkt_nb=211
stream_pkt_nb=147
duration_ts=1
duration_time=0.020168 
flag_key=K
[/PACKET]
[PACKET]
codec_type=audio
stream_index=1
pts=64512
pts_time=2.925714 
dts=64512
dts_time=2.925714 
size=119.000000 
file_pkt_nb=212
stream_pkt_nb=65
duration_ts=0
duration_time=0.000000 
flag_key=K
[/PACKET]
[PACKET]
codec_type=video
stream_index=0
pts=147
pts_time=2.964706 
dts=147
dts_time=2.964706 
size=41.000000 
file_pkt_nb=213
stream_pkt_nb=148
duration_ts=1
duration_time=0.020168 
flag_key=K
[/PACKET]
[PACKET]
codec_type=video
stream_index=0
pts=148
pts_time=2.984874 
dts=148
dts_time=2.984874 
size=193.000000 
file_pkt_nb=214
stream_pkt_nb=149
duration_ts=1
duration_time=0.020168 
flag_key=K
[/PACKET]
[PACKET]
codec_type=audio
stream_index=1
pts=65536
pts_time=2.972154 
dts=65536
dts_time=2.972154 
size=131.000000 
file_pkt_nb=215
stream_pkt_nb=66
duration_ts=0
duration_time=0.000000 
flag_key=K
[/PACKET]
[PACKET]
codec_type=video
stream_index=0
pts=149
pts_time=3.005042 
dts=149
dts_time=3.005042 
size=396.000000 
file_pkt_nb=216
stream_pkt_nb=150
duration_ts=1
duration_time=0.020168 
flag_key=K
[/PACKET]
[PACKET]
codec_type=video
stream_index=0
pts=150
pts_time=3.025210 
dts=150
dts_time=3.025210 
size=20.000000 
file_pkt_nb=217
stream_pkt_nb=151
duration_ts=1
duration_time=0.020168 
flag_key=K
[/PACKET]
[PACKET]
codec_type=audio
stream_index=1
pts=66560
pts_time=3.018594 
dts=66560
dts_time=3.018594 
size=144.000000 
file_pkt_nb=218
stream_pkt_nb=67
duration_ts=0
duration_time=0.000000 
flag_key=K
[/PACKET]
[PACKET]
codec_type=video
stream_index=0
pts=151
pts_time=3.045378 
dts=151
dts_time=3.045378 
size=849.000000 
file_pkt_nb=219
stream_pkt_nb=152
duration_ts=1
duration_time=0.020168 
flag_key=K
[/PACKET]
[PACKET]
codec_type=video
stream_index=0
pts=152
pts_time=3.065546 
dts=152
dts_time=3.065546 
size=15.000000 
file_pkt_nb=220
stream_pkt_nb=153
duration_ts=1
duration_time=0.020168 
flag_key=K
[/PACKET]
[PACKET]
codec_type=video
stream_index=0
pts=153
pts_time=3.085714 
dts=153
dts_time=3.085714 
size=3459.000000 
file_pkt_nb=221
stream_pkt_nb=154
duration_ts=1
duration_time=0.020168 
flag_key=K
[/PACKET]
[PACKET]
codec_type=audio
stream_index=1
pts=67584
pts_time=3.065034 
dts=67584
dts_time=3.065034 
size=129.000000 
file_pkt_nb=222
stream_pkt_nb=68
duration_ts=0
duration_time=0.000000 
flag_key=K
[/PACKET]
[PACKET]
codec_type=video
stream_index=0
pts=154
pts_time=3.105882 
dts=154
dts_time=3.105882 
size=17.000000 
file_pkt_nb=223
stream_pkt_nb=155
duration_ts=1
duration_time=0.020168 
flag_key=K
[/PACKET]
[PACKET]
codec_type=video
stream_index=0
pts=155
pts_time=3.126050 
dts=155
dts_time=3.126050 
size=195.000000 
file_pkt_nb=224
stream_pkt_nb=156
duration_ts=1
duration_time=0.020168 
flag_key=K
[/PACKET]
[PACKET]
codec_type=audio
stream_index=1
pts=68608
pts_time=3.111474 
dts=68608
dts_time=3.111474 
size=138.000000 
file_pkt_nb=225
stream_pkt_nb=69
duration_ts=0
duration_time=0.000000 
flag_key=K
[/PACKET]
[PACKET]
codec_type=video
stream_index=0
pts=156
pts_time=3.146218 
dts=156
dts_time=3.146218 
size=79.000000 
file_pkt_nb=226
stream_pkt_nb=157
duration_ts=1
duration_time=0.020168 
flag_key=K
[/PACKET]
[PACKET]
codec_type=video
stream_index=0
pts=157
pts_time=3.166387 
dts=157
dts_time=3.166387 
size=955.000000 
file_pkt_nb=227
stream_pkt_nb=158
duration_ts=1
duration_time=0.020168 
flag_key=K
[/PACKET]
[PACKET]
codec_type=audio
stream_index=1
pts=69632
pts_time=3.157914 
dts=69632
dts_time=3.157914 
size=134.000000 
file_pkt_nb=228
stream_pkt_nb=70
duration_ts=0
duration_time=0.000000 
flag_key=K
[/PACKET]
[PACKET]
codec_type=video
stream_index=0
pts=158
pts_time=3.186555 
dts=158
dts_time=3.186555 
size=22.000000 
file_pkt_nb=229
stream_pkt_nb=159
duration_ts=1
duration_time=0.020168 
flag_key=K
[/PACKET]
[PACKET]
codec_type=video
stream_index=0
pts=159
pts_time=3.206723 
dts=159
dts_time=3.206723 
size=197.000000 
file_pkt_nb=230
stream_pkt_nb=160
duration_ts=1
duration_time=0.020168 
flag_key=K
[/PACKET]
[PACKET]
codec_type=video
stream_index=0
pts=160
pts_time=3.226891 
dts=160
dts_time=3.226891 
size=451.000000 
file_pkt_nb=231
stream_pkt_nb=161
duration_ts=1
duration_time=0.020168 
flag_key=K
[/PACKET]
[PACKET]
codec_type=audio
stream_index=1
pts=70656
pts_time=3.204354 
dts=70656
dts_time=3.204354 
size=128.000000 
file_pkt_nb=232
stream_pkt_nb=71
duration_ts=0
duration_time=0.000000 
flag_key=K
[/PACKET]
[PACKET]
codec_type=video
stream_index=0
pts=161
pts_time=3.247059 
dts=161
dts_time=3.247059 
size=48.000000 
file_pkt_nb=233
stream_pkt_nb=162
duration_ts=1
duration_time=0.020168 
flag_key=K
[/PACKET]
[PACKET]
codec_type=video
stream_index=0
pts=162
pts_time=3.267227 
dts=162
dts_time=3.267227 
size=400.000000 
file_pkt_nb=234
stream_pkt_nb=163
duration_ts=1
duration_time=0.020168 
flag_key=K
[/PACKET]
[PACKET]
codec_type=audio
stream_index=1
pts=71680
pts_time=3.250794 
dts=71680
dts_time=3.250794 
size=137.000000 
file_pkt_nb=235
stream_pkt_nb=72
duration_ts=0
duration_time=0.000000 
flag_key=K
[/PACKET]
[PACKET]
codec_type=video
stream_index=0
pts=163
pts_time=3.287395 
dts=163
dts_time=3.287395 
size=3477.000000 
file_pkt_nb=236
stream_pkt_nb=164
duration_ts=1
duration_time=0.020168 
flag_key=K
[/PACKET]
[PACKET]
codec_type=video
stream_index=0
pts=164
pts_time=3.307563 
dts=164
dts_time=3.307563 
size=458.000000 
file_pkt_nb=237
stream_pkt_nb=165
duration_ts=1
duration_time=0.020168 
flag_key=K
[/PACKET]
[PACKET]
codec_type=audio
stream_index=1
pts=72704
pts_time=3.297234 
dts=72704
dts_time=3.297234 
size=139.000000 
file_pkt_nb=238
stream_pkt_nb=73
duration_ts=0
duration_time=0.000000 
flag_key=K
[/PACKET]
[PACKET]
codec_type=video
stream_index=0
pts=165
pts_time=3.327731 
dts=165
dts_time=3.327731 
size=495.000000 
file_pkt_nb=239
stream_pkt_nb=166
duration_ts=1
duration_time=0.020168 
flag_key=K
[/PACKET]
[PACKET]
codec_type=video
stream_index=0
pts=166
pts_time=3.347899 
dts=166
dts_time=3.347899 
size=188.000000 
file_pkt_nb=240
stream_pkt_nb=167
duration_ts=1
duration_time=0.020168 
flag_key=K
[/PACKET]
[PACKET]
codec_type=video
stream_index=0
pts=167
pts_time=3.368067 
dts=167
dts_time=3.368067 
size=309.000000 
file_pkt_nb=241
stream_pkt_nb=168
duration_ts=1
duration_time=0.020168 
flag_key=K
[/PACKET]
[PACKET]
codec_type=audio
stream_index=1
pts=73728
pts_time=3.343673 
dts=73728
dts_time=3.343673 
size=135.000000 
file_pkt_nb=242
stream_pkt_nb=74
duration_ts=0
duration_time=0.000000 
flag_key=K
[/PACKET]
[PACKET]
codec_type=video
stream_index=0
pts=168
pts_time=3.388235 
dts=168
dts_time=3.388235 
size=97.000000 
file_pkt_nb=243
stream_pkt_nb=169
duration_ts=1
duration_time=0.020168 
flag_key=K
[/PACKET]
[PACKET]
codec_type=video
stream_index=0
pts=169
pts_time=3.408403 
dts=169
dts_time=3.408403 
size=674.000000 
file_pkt_nb=244
stream_pkt_nb=170
duration_ts=1
duration_time=0.020168 
flag_key=K
[/PACKET]
[PACKET]
codec_type=audio
stream_index=1
pts=74752
pts_time=3.390113 
dts=74752
dts_time=3.390113 
size=145.000000 
file_pkt_nb=245
stream_pkt_nb=75
duration_ts=0
duration_time=0.000000 
flag_key=K
[/PACKET]
[PACKET]
codec_type=video
stream_index=0
pts=170
pts_time=3.428571 
dts=170
dts_time=3.428571 
size=18.000000 
file_pkt_nb=246
stream_pkt_nb=171
duration_ts=1
duration_time=0.020168 
flag_key=K
[/PACKET]
[PACKET]
codec_type=video
stream_index=0
pts=171
pts_time=3.448739 
dts=171
dts_time=3.448739 
size=3292.000000 
file_pkt_nb=247
stream_pkt_nb=172
duration_ts=1
duration_time=0.020168 
flag_key=K
[/PACKET]
[PACKET]
codec_type=audio
stream_index=1
pts=75776
pts_time=3.436553 
dts=75776
dts_time=3.436553 
size=131.000000 
file_pkt_nb=248
stream_pkt_nb=76
duration_ts=0
duration_time=0.000000 
flag_key=K
[/PACKET]
[PACKET]
codec_type=video
stream_index=0
pts=172
pts_time=3.468908 
dts=172
dts_time=3.468908 
size=531.000000 
file_pkt_nb=249
stream_pkt_nb=173
duration_ts=1
duration_time=0.020168 
flag_key=K
[/PACKET]
[PACKET]
codec_type=video
stream_index=0
pts=173
pts_time=3.489076 
dts=173
dts_time=3.489076 
size=45.000000 
file_pkt_nb=250
stream_pkt_nb=174
duration_ts=1
duration_time=0.020168 
flag_key=K
[/PACKET]
[PACKET]
codec_type=video
stream_index=0
pts=174
pts_time=3.509244 
dts=174
dts_time=3.509244 
size=715.000000 
file_pkt_nb=251
stream_pkt_nb=175
duration_ts=1
duration_time=0.020168 
flag_key=K
[/PACKET]
[PACKET]
codec_type=audio
stream_index=1
pts=76800
pts_time=3.482993 
dts=76800
dts_time=3.482993 
size=143.000000 
file_pkt_nb=252
stream_pkt_nb=77
duration_ts=0
duration_time=0.000000 
flag_key=K
[/PACKET]
[PACKET]
codec_type=video
stream_index=0
pts=175
pts_time=3.529412 
dts=175
dts_time=3.529412 
size=27.000000 
file_pkt_nb=253
stream_pkt_nb=176
duration_ts=1
duration_time=0.020168 
flag_key=K
[/PACKET]
[PACKET]
codec_type=video
stream_index=0
pts=176
pts_time=3.549580 
dts=176
dts_time=3.549580 
size=178.000000 
file_pkt_nb=254
stream_pkt_nb=177
duration_ts=1
duration_time=0.020168 
flag_key=K
[/PACKET]
[PACKET]
codec_type=audio
stream_index=1
pts=77824
pts_time=3.529433 
dts=77824
dts_time=3.529433 
size=147.000000 
file_pkt_nb=255
stream_pkt_nb=78
duration_ts=0
duration_time=0.000000 
flag_key=K
[/PACKET]
[PACKET]
codec_type=video
stream_index=0
pts=177
pts_time=3.569748 
dts=177
dts_time=3.569748 
size=57.000000 
file_pkt_nb=256
stream_pkt_nb=178
duration_ts=1
duration_time=0.020168 
flag_key=K
[/PACKET]
[PACKET]
codec_type=video
stream_index=0
pts=178
pts_time=3.589916 
dts=178
dts_time=3.589916 
size=1137.000000 
file_pkt_nb=257
stream_pkt_nb=179
duration_ts=1
duration_time=0.020168 
flag_key=K
[/PACKET]
[PACKET]
codec_type=audio
stream_index=1
pts=78848
pts_time=3.575873 
dts=78848
dts_time=3.575873 
size=143.000000 
file_pkt_nb=258
stream_pkt_nb=79
duration_ts=0
duration_time=0.000000 
flag_key=K
[/PACKET]
[PACKET]
codec_type=video
stream_index=0
pts=179
pts_time=3.610084 
dts=179
dts_time=3.610084 
size=37.000000 
file_pkt_nb=259
stream_pkt_nb=180
duration_ts=1
duration_time=0.020168 
flag_key=K
[/PACKET]
[PACKET]
codec_type=video
stream_index=0
pts=180
pts_time=3.630252 
dts=180
dts_time=3.630252 
size=279.000000 
file_pkt_nb=260
stream_pkt_nb=181
duration_ts=1
duration_time=0.020168 
flag_key=K
[/PACKET]
[PACKET]
codec_type=audio
stream_index=1
pts=79872
pts_time=3.622313 
dts=79872
dts_time=3.622313 
size=146.000000 
file_pkt_nb=261
stream_pkt_nb=80
duration_ts=0
duration_time=0.000000 
flag_key=K
[/PACKET]
[PACKET]
codec_type=video
stream_index=0
pts=181
pts_time=3.650420 
dts=181
dts_time=3.650420 
size=15.000000 
file_pkt_nb=262
stream_pkt_nb=182
duration_ts=1
duration_time=0.020168 
flag_key=K
[/PACKET]
[PACKET]
codec_type=video
stream_index=0
pts=182
pts_time=3.670588 
dts=182
dts_time=3.670588 
size=4103.000000 
file_pkt_nb=263
stream_pkt_nb=183
duration_ts=1
duration_time=0.020168 
flag_key=K
[/PACKET]
[PACKET]
codec_type=video
stream_index=0
pts=183
pts_time=3.690756 
dts=183
dts_time=3.690756 
size=641.000000 
file_pkt_nb=264
stream_pkt_nb=184
duration_ts=1
duration_time=0.020168 
flag_key=K
[/PACKET]
[PACKET]
codec_type=audio
stream_index=1
pts=80896
pts_time=3.668753 
dts=80896
dts_time=3.668753 
size=152.000000 
file_pkt_nb=265
stream_pkt_nb=81
duration_ts=0
duration_time=0.000000 
flag_key=K
[/PACKET]
[PACKET]
codec_type=video
stream_index=0
pts=184
pts_time=3.710924 
dts=184
dts_time=3.710924 
size=15.000000 
file_pkt_nb=266
stream_pkt_nb=185
duration_ts=1
duration_time=0.020168 
flag_key=K
[/PACKET]
[PACKET]
codec_type=video
stream_index=0
pts=185
pts_time=3.731092 
dts=185
dts_time=3.731092 
size=226.000000 
file_pkt_nb=267
stream_pkt_nb=186
duration_ts=1
duration_time=0.020168 
flag_key=K
[/PACKET]
[PACKET]
codec_type=audio
stream_index=1
pts=81920
pts_time=3.715193 
dts=81920
dts_time=3.715193 
size=137.000000 
file_pkt_nb=268
stream_pkt_nb=82
duration_ts=0
duration_time=0.000000 
flag_key=K
[/PACKET]
[PACKET]
codec_type=video
stream_index=0
pts=186
pts_time=3.751261 
dts=186
dts_time=3.751261 
size=374.000000 
file_pkt_nb=269
stream_pkt_nb=187
duration_ts=1
duration_time=0.020168 
flag_key=K
[/PACKET]
[PACKET]
codec_type=video
stream_index=0
pts=187
pts_time=3.771429 
dts=187
dts_time=3.771429 
size=253.000000 
file_pkt_nb=270
stream_pkt_nb=188
duration_ts=1
duration_time=0.020168 
flag_key=K
[/PACKET]
[PACKET]
codec_type=audio
stream_index=1
pts=82944
pts_time=3.761633 
dts=82944
dts_time=3.761633 
size=147.000000 
file_pkt_nb=271
stream_pkt_nb=83
duration_ts=0
duration_time=0.000000 
flag_key=K
[/PACKET]
[PACKET]
codec_type=video
stream_index=0
pts=188
pts_time=3.791597 
dts=188
dts_time=3.791597 
size=97.000000 
file_pkt_nb=272
stream_pkt_nb=189
duration_ts=1
duration_time=0.020168 
flag_key=K
[/PACKET]
[PACKET]
codec_type=video
stream_index=0
pts=189
pts_time=3.811765 
dts=189
dts_time=3.811765 
size=684.000000 
file_pkt_nb=273
stream_pkt_nb=190
duration_ts=1
duration_time=0.020168 
flag_key=K
[/PACKET]
[PACKET]
codec_type=video
stream_index=0
pts=190
pts_time=3.831933 
dts=190
dts_time=3.831933 
size=20.000000 
file_pkt_nb=274
stream_pkt_nb=191
duration_ts=1
duration_time=0.020168 
flag_key=K
[/PACKET]
[PACKET]
codec_type=audio
stream_index=1
pts=83968
pts_time=3.808073 
dts=83968
dts_time=3.808073 
size=153.000000 
file_pkt_nb=275
stream_pkt_nb=84
duration_ts=0
duration_time=0.000000 
flag_key=K
[/PACKET]
[PACKET]
codec_type=video
stream_index=0
pts=191
pts_time=3.852101 
dts=191
dts_time=3.852101 
size=2582.000000 
file_pkt_nb=276
stream_pkt_nb=192
duration_ts=1
duration_time=0.020168 
flag_key=K
[/PACKET]
[PACKET]
codec_type=video
stream_index=0
pts=192
pts_time=3.872269 
dts=192
dts_time=3.872269 
size=421.000000 
file_pkt_nb=277
stream_pkt_nb=193
duration_ts=1
duration_time=0.020168 
flag_key=K
[/PACKET]
[PACKET]
codec_type=audio
stream_index=1
pts=84992
pts_time=3.854512 
dts=84992
dts_time=3.854512 
size=154.000000 
file_pkt_nb=278
stream_pkt_nb=85
duration_ts=0
duration_time=0.000000 
flag_key=K
[/PACKET]
[PACKET]
codec_type=video
stream_index=0
pts=193
pts_time=3.892437 
dts=193
dts_time=3.892437 
size=99.000000 
file_pkt_nb=279
stream_pkt_nb=194
duration_ts=1
duration_time=0.020168 
flag_key=K
[/PACKET]
[PACKET]
codec_type=video
stream_index=0
pts=194
pts_time=3.912605 
dts=194
dts_time=3.912605 
size=266.000000 
file_pkt_nb=280
stream_pkt_nb=195
duration_ts=1
duration_time=0.020168 
flag_key=K
[/PACKET]
[PACKET]
codec_type=audio
stream_index=1
pts=86016
pts_time=3.900952 
dts=86016
dts_time=3.900952 
size=153.000000 
file_pkt_nb=281
stream_pkt_nb=86
duration_ts=0
duration_time=0.000000 
flag_key=K
[/PACKET]
[PACKET]
codec_type=video
stream_index=0
pts=195
pts_time=3.932773 
dts=195
dts_time=3.932773 
size=45.000000 
file_pkt_nb=282
stream_pkt_nb=196
duration_ts=1
duration_time=0.020168 
flag_key=K
[/PACKET]
[PACKET]
codec_type=video
stream_index=0
pts=196
pts_time=3.952941 
dts=196
dts_time=3.952941 
size=710.000000 
file_pkt_nb=283
stream_pkt_nb=197
duration_ts=1
duration_time=0.020168 
flag_key=K
[/PACKET]
[PACKET]
codec_type=video
stream_index=0
pts=197
pts_time=3.973109 
dts=197
dts_time=3.973109 
size=24.000000 
file_pkt_nb=284
stream_pkt_nb=198
duration_ts=1
duration_time=0.020168 
flag_key=K
[/PACKET]
[PACKET]
codec_type=audio
stream_index=1
pts=87040
pts_time=3.947392 
dts=87040
dts_time=3.947392 
size=157.000000 
file_pkt_nb=285
stream_pkt_nb=87
duration_ts=0
duration_time=0.000000 
flag_key=K
[/PACKET]
[PACKET]
codec_type=video
stream_index=0
pts=198
pts_time=3.993277 
dts=198
dts_time=3.993277 
size=918.000000 
file_pkt_nb=286
stream_pkt_nb=199
duration_ts=1
duration_time=0.020168 
flag_key=K
[/PACKET]
[PACKET]
codec_type=video
stream_index=0
pts=199
pts_time=4.013445 
dts=199
dts_time=4.013445 
size=24.000000 
file_pkt_nb=287
stream_pkt_nb=200
duration_ts=1
duration_time=0.020168 
flag_key=K
[/PACKET]
[PACKET]
codec_type=audio
stream_index=1
pts=88064
pts_time=3.993832 
dts=88064
dts_time=3.993832 
size=165.000000 
file_pkt_nb=288
stream_pkt_nb=88
duration_ts=0
duration_time=0.000000 
flag_key=K
[/PACKET]
[PACKET]
codec_type=video
stream_index=0
pts=200
pts_time=4.033613 
dts=200
dts_time=4.033613 
size=198.000000 
file_pkt_nb=289
stream_pkt_nb=201
duration_ts=1
duration_time=0.020168 
flag_key=K
[/PACKET]
[PACKET]
codec_type=video
stream_index=0
pts=201
pts_time=4.053782 
dts=201
dts_time=4.053782 
size=32.000000 
file_pkt_nb=290
stream_pkt_nb=202
duration_ts=1
duration_time=0.020168 
flag_key=K
[/PACKET]
[PACKET]
codec_type=audio
stream_index=1
pts=89088
pts_time=4.040272 
dts=89088
dts_time=4.040272 
size=164.000000 
file_pkt_nb=291
stream_pkt_nb=89
duration_ts=0
duration_time=0.000000 
flag_key=K
[/PACKET]
[PACKET]
codec_type=video
stream_index=0
pts=202
pts_time=4.073950 
dts=202
dts_time=4.073950 
size=4428.000000 
file_pkt_nb=292
stream_pkt_nb=203
duration_ts=1
duration_time=0.020168 
flag_key=K
[/PACKET]
[PACKET]
codec_type=video
stream_index=0
pts=203
pts_time=4.094118 
dts=203
dts_time=4.094118 
size=249.000000 
file_pkt_nb=293
stream_pkt_nb=204
duration_ts=1
duration_time=0.020168 
flag_key=K
[/PACKET]
[PACKET]
codec_type=audio
stream_index=1
pts=90112
pts_time=4.086712 
dts=90112
dts_time=4.086712 
size=162.000000 
file_pkt_nb=294
stream_pkt_nb=90
duration_ts=0
duration_time=0.000000 
flag_key=K
[/PACKET]
[PACKET]
codec_type=video
stream_index=0
pts=204
pts_time=4.114286 
dts=204
dts_time=4.114286 
size=20.000000 
file_pkt_nb=295
stream_pkt_nb=205
duration_ts=1
duration_time=0.020168 
flag_key=K
[/PACKET]
[PACKET]
codec_type=video
stream_index=0
pts=205
pts_time=4.134454 
dts=205
dts_time=4.134454 
size=721.000000 
file_pkt_nb=296
stream_pkt_nb=206
duration_ts=1
duration_time=0.020168 
flag_key=K
[/PACKET]
[PACKET]
codec_type=video
stream_index=0
pts=206
pts_time=4.154622 
dts=206
dts_time=4.154622 
size=32.000000 
file_pkt_nb=297
stream_pkt_nb=207
duration_ts=1
duration_time=0.020168 
flag_key=K
[/PACKET]
[PACKET]
codec_type=audio
stream_index=1
pts=91136
pts_time=4.133152 
dts=91136
dts_time=4.133152 
size=159.000000 
file_pkt_nb=298
stream_pkt_nb=91
duration_ts=0
duration_time=0.000000 
flag_key=K
[/PACKET]
[PACKET]
codec_type=video
stream_index=0
pts=207
pts_time=4.174790 
dts=207
dts_time=4.174790 
size=522.000000 
file_pkt_nb=299
stream_pkt_nb=208
duration_ts=1
duration_time=0.020168 
flag_key=K
[/PACKET]
[PACKET]
codec_type=video
stream_index=0
pts=208
pts_time=4.194958 
dts=208
dts_time=4.194958 
size=17.000000 
file_pkt_nb=300
stream_pkt_nb=209
duration_ts=1
duration_time=0.020168 
flag_key=K
[/PACKET]
[PACKET]
codec_type=audio
stream_index=1
pts=92160
pts_time=4.179592 
dts=92160
dts_time=4.179592 
size=158.000000 
file_pkt_nb=301
stream_pkt_nb=92
duration_ts=0
duration_time=0.000000 
flag_key=K
[/PACKET]
[PACKET]
codec_type=video
stream_index=0
pts=209
pts_time=4.215126 
dts=209
dts_time=4.215126 
size=120.000000 
file_pkt_nb=302
stream_pkt_nb=210
duration_ts=1
duration_time=0.020168 
flag_key=K
[/PACKET]
[PACKET]
codec_type=video
stream_index=0
pts=210
pts_time=4.235294 
dts=210
dts_time=4.235294 
size=59.000000 
file_pkt_nb=303
stream_pkt_nb=211
duration_ts=1
duration_time=0.020168 
flag_key=K
[/PACKET]
[PACKET]
codec_type=audio
stream_index=1
pts=93184
pts_time=4.226032 
dts=93184
dts_time=4.226032 
size=160.000000 
file_pkt_nb=304
stream_pkt_nb=93
duration_ts=0
duration_time=0.000000 
flag_key=K
[/PACKET]
[PACKET]
codec_type=video
stream_index=0
pts=211
pts_time=4.255462 
dts=211
dts_time=4.255462 
size=627.000000 
file_pkt_nb=305
stream_pkt_nb=212
duration_ts=1
duration_time=0.020168 
flag_key=K
[/PACKET]
[PACKET]
codec_type=video
stream_index=0
pts=212
pts_time=4.275630 
dts=212
dts_time=4.275630 
size=18.000000 
file_pkt_nb=306
stream_pkt_nb=213
duration_ts=1
duration_time=0.020168 
flag_key=K
[/PACKET]
[PACKET]
codec_type=video
stream_index=0
pts=213
pts_time=4.295798 
dts=213
dts_time=4.295798 
size=3349.000000 
file_pkt_nb=307
stream_pkt_nb=214
duration_ts=1
duration_time=0.020168 
flag_key=K
[/PACKET]
[PACKET]
codec_type=audio
stream_index=1
pts=94208
pts_time=4.272472 
dts=94208
dts_time=4.272472 
size=178.000000 
file_pkt_nb=308
stream_pkt_nb=94
duration_ts=0
duration_time=0.000000 
flag_key=K
[/PACKET]
[PACKET]
codec_type=video
stream_index=0
pts=214
pts_time=4.315966 
dts=214
dts_time=4.315966 
size=1070.000000 
file_pkt_nb=309
stream_pkt_nb=215
duration_ts=1
duration_time=0.020168 
flag_key=K
[/PACKET]
[PACKET]
codec_type=video
stream_index=0
pts=215
pts_time=4.336134 
dts=215
dts_time=4.336134 
size=33.000000 
file_pkt_nb=310
stream_pkt_nb=216
duration_ts=1
duration_time=0.020168 
flag_key=K
[/PACKET]
[PACKET]
codec_type=audio
stream_index=1
pts=95232
pts_time=4.318912 
dts=95232
dts_time=4.318912 
size=151.000000 
file_pkt_nb=311
stream_pkt_nb=95
duration_ts=0
duration_time=0.000000 
flag_key=K
[/PACKET]
[PACKET]
codec_type=video
stream_index=0
pts=216
pts_time=4.356303 
dts=216
dts_time=4.356303 
size=422.000000 
file_pkt_nb=312
stream_pkt_nb=217
duration_ts=1
duration_time=0.020168 
flag_key=K
[/PACKET]
[PACKET]
codec_type=video
stream_index=0
pts=217
pts_time=4.376471 
dts=217
dts_time=4.376471 
size=53.000000 
file_pkt_nb=313
stream_pkt_nb=218
duration_ts=1
duration_time=0.020168 
flag_key=K
[/PACKET]
[PACKET]
codec_type=audio
stream_index=1
pts=96256
pts_time=4.365351 
dts=96256
dts_time=4.365351 
size=163.000000 
file_pkt_nb=314
stream_pkt_nb=96
duration_ts=0
duration_time=0.000000 
flag_key=K
[/PACKET]
[PACKET]
codec_type=video
stream_index=0
pts=218
pts_time=4.396639 
dts=218
dts_time=4.396639 
size=165.000000 
file_pkt_nb=315
stream_pkt_nb=219
duration_ts=1
duration_time=0.020168 
flag_key=K
[/PACKET]
[PACKET]
codec_type=video
stream_index=0
pts=219
pts_time=4.416807 
dts=219
dts_time=4.416807 
size=70.000000 
file_pkt_nb=316
stream_pkt_nb=220
duration_ts=1
duration_time=0.020168 
flag_key=K
[/PACKET]
[PACKET]
codec_type=video
stream_index=0
pts=220
pts_time=4.436975 
dts=220
dts_time=4.436975 
size=387.000000 
file_pkt_nb=317
stream_pkt_nb=221
duration_ts=1
duration_time=0.020168 
flag_key=K
[/PACKET]
[PACKET]
codec_type=audio
stream_index=1
pts=97280
pts_time=4.411791 
dts=97280
dts_time=4.411791 
size=160.000000 
file_pkt_nb=318
stream_pkt_nb=97
duration_ts=0
duration_time=0.000000 
flag_key=K
[/PACKET]
[PACKET]
codec_type=video
stream_index=0
pts=221
pts_time=4.457143 
dts=221
dts_time=4.457143 
size=96.000000 
file_pkt_nb=319
stream_pkt_nb=222
duration_ts=1
duration_time=0.020168 
flag_key=K
[/PACKET]
[PACKET]
codec_type=video
stream_index=0
pts=222
pts_time=4.477311 
dts=222
dts_time=4.477311 
size=2715.000000 
file_pkt_nb=320
stream_pkt_nb=223
duration_ts=1
duration_time=0.020168 
flag_key=K
[/PACKET]
[PACKET]
codec_type=audio
stream_index=1
pts=98304
pts_time=4.458231 
dts=98304
dts_time=4.458231 
size=150.000000 
file_pkt_nb=321
stream_pkt_nb=98
duration_ts=0
duration_time=0.000000 
flag_key=K
[/PACKET]
[PACKET]
codec_type=video
stream_index=0
pts=223
pts_time=4.497479 
dts=223
dts_time=4.497479 
size=302.000000 
file_pkt_nb=322
stream_pkt_nb=224
duration_ts=1
duration_time=0.020168 
flag_key=K
[/PACKET]
[PACKET]
codec_type=video
stream_index=0
pts=224
pts_time=4.517647 
dts=224
dts_time=4.517647 
size=267.000000 
file_pkt_nb=323
stream_pkt_nb=225
duration_ts=1
duration_time=0.020168 
flag_key=K
[/PACKET]
[PACKET]
codec_type=audio
stream_index=1
pts=99328
pts_time=4.504671 
dts=99328
dts_time=4.504671 
size=155.000000 
file_pkt_nb=324
stream_pkt_nb=99
duration_ts=0
duration_time=0.000000 
flag_key=K
[/PACKET]
[PACKET]
codec_type=video
stream_index=0
pts=225
pts_time=4.537815 
dts=225
dts_time=4.537815 
size=119.000000 
file_pkt_nb=325
stream_pkt_nb=226
duration_ts=1
duration_time=0.020168 
flag_key=K
[/PACKET]
[PACKET]
codec_type=video
stream_index=0
pts=226
pts_time=4.557983 
dts=226
dts_time=4.557983 
size=797.000000 
file_pkt_nb=326
stream_pkt_nb=227
duration_ts=1
duration_time=0.020168 
flag_key=K
[/PACKET]
[PACKET]
codec_type=audio
stream_index=1
pts=100352
pts_time=4.551111 
dts=100352
dts_time=4.551111 
size=142.000000 
file_pkt_nb=327
stream_pkt_nb=100
duration_ts=0
duration_time=0.000000 
flag_key=K
[/PACKET]
[PACKET]
codec_type=video
stream_index=0
pts=227
pts_time=4.578151 
dts=227
dts_time=4.578151 
size=27.000000 
file_pkt_nb=328
stream_pkt_nb=228
duration_ts=1
duration_time=0.020168 
flag_key=K
[/PACKET]
[PACKET]
codec_type=video
stream_index=0
pts=228
pts_time=4.598319 
dts=228
dts_time=4.598319 
size=693.000000 
file_pkt_nb=329
stream_pkt_nb=229
duration_ts=1
duration_time=0.020168 
flag_key=K
[/PACKET]
[PACKET]
codec_type=video
stream_index=0
pts=229
pts_time=4.618487 
dts=229
dts_time=4.618487 
size=20.000000 
file_pkt_nb=330
stream_pkt_nb=230
duration_ts=1
duration_time=0.020168 
flag_key=K
[/PACKET]
[PACKET]
codec_type=audio
stream_index=1
pts=101376
pts_time=4.597551 
dts=101376
dts_time=4.597551 
size=158.000000 
file_pkt_nb=331
stream_pkt_nb=101
duration_ts=0
duration_time=0.000000 
flag_key=K
[/PACKET]
[PACKET]
codec_type=video
stream_index=0
pts=230
pts_time=4.638655 
dts=230
dts_time=4.638655 
size=243.000000 
file_pkt_nb=332
stream_pkt_nb=231
duration_ts=1
duration_time=0.020168 
flag_key=K
[/PACKET]
[PACKET]
codec_type=video
stream_index=0
pts=231
pts_time=4.658824 
dts=231
dts_time=4.658824 
size=71.000000 
file_pkt_nb=333
stream_pkt_nb=232
duration_ts=1
duration_time=0.020168 
flag_key=K
[/PACKET]
[PACKET]
codec_type=audio
stream_index=1
pts=102400
pts_time=4.643991 
dts=102400
dts_time=4.643991 
size=154.000000 
file_pkt_nb=334
stream_pkt_nb=102
duration_ts=0
duration_time=0.000000 
flag_key=K
[/PACKET]
[PACKET]
codec_type=video
stream_index=0
pts=232
pts_time=4.678992 
dts=232
dts_time=4.678992 
size=4683.000000 
file_pkt_nb=335
stream_pkt_nb=233
duration_ts=1
duration_time=0.020168 
flag_key=K
[/PACKET]
[PACKET]
codec_type=audio
stream_index=1
pts=103424
pts_time=4.690431 
dts=103424
dts_time=4.690431 
size=151.000000 
file_pkt_nb=336
stream_pkt_nb=103
duration_ts=0
duration_time=0.000000 
flag_key=K
[/PACKET]
[PACKET]
codec_type=audio
stream_index=1
pts=104448
pts_time=4.736871 
dts=104448
dts_time=4.736871 
size=164.000000 
file_pkt_nb=337
stream_pkt_nb=104
duration_ts=0
duration_time=0.000000 
flag_key=K
[/PACKET]
[PACKET]
codec_type=audio
stream_index=1
pts=105472
pts_time=4.783311 
dts=105472
dts_time=4.783311 
size=164.000000 
file_pkt_nb=338
stream_pkt_nb=105
duration_ts=0
duration_time=0.000000 
flag_key=K
[/PACKET]
[PACKET]
codec_type=audio
stream_index=1
pts=106496
pts_time=4.829751 
dts=106496
dts_time=4.829751 
size=161.000000 
file_pkt_nb=339
stream_pkt_nb=106
duration_ts=0
duration_time=0.000000 
flag_key=K
[/PACKET]
[PACKET]
codec_type=audio
stream_index=1
pts=107520
pts_time=4.876190 
dts=107520
dts_time=4.876190 
size=166.000000 
file_pkt_nb=340
stream_pkt_nb=107
duration_ts=0
duration_time=0.000000 
flag_key=K
[/PACKET]
[PACKET]
codec_type=audio
stream_index=1
pts=108544
pts_time=4.922630 
dts=108544
dts_time=4.922630 
size=172.000000 
file_pkt_nb=341
stream_pkt_nb=108
duration_ts=0
duration_time=0.000000 
flag_key=K
[/PACKET]
[PACKET]
codec_type=audio
stream_index=1
pts=109568
pts_time=4.969070 
dts=109568
dts_time=4.969070 
size=159.000000 
file_pkt_nb=342
stream_pkt_nb=109
duration_ts=0
duration_time=0.000000 
flag_key=K
[/PACKET]
[PACKET]
codec_type=audio
stream_index=1
pts=110592
pts_time=5.015510 
dts=110592
dts_time=5.015510 
size=159.000000 
file_pkt_nb=343
stream_pkt_nb=110
duration_ts=0
duration_time=0.000000 
flag_key=K
[/PACKET]
[PACKET]
codec_type=audio
stream_index=1
pts=111616
pts_time=5.061950 
dts=111616
dts_time=5.061950 
size=163.000000 
file_pkt_nb=344
stream_pkt_nb=111
duration_ts=0
duration_time=0.000000 
flag_key=K
[/PACKET]
[PACKET]
codec_type=audio
stream_index=1
pts=112640
pts_time=5.108390 
dts=112640
dts_time=5.108390 
size=155.000000 
file_pkt_nb=345
stream_pkt_nb=112
duration_ts=0
duration_time=0.000000 
flag_key=K
[/PACKET]
[PACKET]
codec_type=audio
stream_index=1
pts=113664
pts_time=5.154830 
dts=113664
dts_time=5.154830 
size=146.000000 
file_pkt_nb=346
stream_pkt_nb=113
duration_ts=0
duration_time=0.000000 
flag_key=K
[/PACKET]
[PACKET]
codec_type=audio
stream_index=1
pts=114688
pts_time=5.201270 
dts=114688
dts_time=5.201270 
size=132.000000 
file_pkt_nb=347
stream_pkt_nb=114
duration_ts=0
duration_time=0.000000 
flag_key=K
[/PACKET]
[PACKET]
codec_type=audio
stream_index=1
pts=115712
pts_time=5.247710 
dts=115712
dts_time=5.247710 
size=128.000000 
file_pkt_nb=348
stream_pkt_nb=115
duration_ts=0
duration_time=0.000000 
flag_key=K
[/PACKET]
[PACKET]
codec_type=audio
stream_index=1
pts=116736
pts_time=5.294150 
dts=116736
dts_time=5.294150 
size=124.000000 
file_pkt_nb=349
stream_pkt_nb=116
duration_ts=0
duration_time=0.000000 
flag_key=K
[/PACKET]
[PACKET]
codec_type=audio
stream_index=1
pts=117760
pts_time=5.340590 
dts=117760
dts_time=5.340590 
size=107.000000 
file_pkt_nb=350
stream_pkt_nb=117
duration_ts=0
duration_time=0.000000 
flag_key=K
[/PACKET]
[PACKET]
codec_type=audio
stream_index=1
pts=118784
pts_time=5.387029 
dts=118784
dts_time=5.387029 
size=61.000000 
file_pkt_nb=351
stream_pkt_nb=118
duration_ts=0
duration_time=0.000000 
flag_key=K
[/PACKET]
[PACKET]
codec_type=audio
stream_index=1
pts=119808
pts_time=5.433469 
dts=119808
dts_time=5.433469 
size=30.000000 
file_pkt_nb=352
stream_pkt_nb=119
duration_ts=0
duration_time=0.000000 
flag_key=K
[/PACKET]
[PACKET]
codec_type=audio
stream_index=1
pts=120832
pts_time=5.479909 
dts=120832
dts_time=5.479909 
size=30.000000 
file_pkt_nb=353
stream_pkt_nb=120
duration_ts=0
duration_time=0.000000 
flag_key=K
[/PACKET]
[PACKET]
codec_type=audio
stream_index=1
pts=121856
pts_time=5.526349 
dts=121856
dts_time=5.526349 
size=30.000000 
file_pkt_nb=354
stream_pkt_nb=121
duration_ts=0
duration_time=0.000000 
flag_key=K
[/PACKET]
[PACKET]
codec_type=audio
stream_index=1
pts=122880
pts_time=5.572789 
dts=122880
dts_time=5.572789 
size=30.000000 
file_pkt_nb=355
stream_pkt_nb=122
duration_ts=0
duration_time=0.000000 
flag_key=K
[/PACKET]
[PACKET]
codec_type=audio
stream_index=1
pts=123904
pts_time=5.619229 
dts=123904
dts_time=5.619229 
size=30.000000 
file_pkt_nb=356
stream_pkt_nb=123
duration_ts=0
duration_time=0.000000 
flag_key=K
[/PACKET]
